<svg version="1.1" id="Layer_1" xmlns="http://www.w3.org/2000/svg" xmlns:xlink="http://www.w3.org/1999/xlink" x="0px" y="0px"
	 width="100%" viewBox="0 0 500 500" enable-background="new 0 0 500 500" xml:space="preserve">
<path fill="#000000" opacity="1.000000" stroke="none" 
	d="
M314.000000,501.000000 
	C209.333359,501.000000 105.166718,501.000000 1.000056,501.000000 
	C1.000037,334.333405 1.000037,167.666794 1.000019,1.000145 
	C167.666565,1.000097 334.333130,1.000097 500.999756,1.000048 
	C500.999847,167.666519 500.999847,334.333038 500.999939,500.999786 
	C438.833344,501.000000 376.666656,501.000000 314.000000,501.000000 
M302.000885,250.004349 
	C302.000885,250.004349 302.048767,249.986435 301.948181,249.389053 
	C301.642731,248.898346 301.337280,248.407654 300.997681,247.466415 
	C300.997681,247.466415 300.967377,247.015610 300.968323,246.446884 
	C300.670868,246.233017 300.373413,246.019150 299.996490,245.040024 
	C297.653198,237.364792 295.309937,229.689575 292.945862,221.180267 
	C291.316132,213.492157 289.686432,205.804047 287.985077,197.777985 
	C283.676392,199.858063 280.340942,201.468307 276.379852,203.279022 
	C275.249542,203.843948 274.119232,204.408890 272.498260,205.054245 
	C272.498260,205.054245 272.015991,205.174957 271.343231,205.112793 
	C270.368256,205.301132 269.393250,205.489456 267.726166,205.811462 
	C269.548370,203.871857 270.818726,202.519669 272.797028,201.120667 
	C275.303589,198.819168 278.417969,196.903458 280.179138,194.128799 
	C283.068939,189.576004 286.046265,184.577927 281.983856,178.208191 
	C281.979187,177.877197 282.078552,177.500015 281.955078,177.221771 
	C272.482422,155.876572 260.197296,136.724335 239.810699,124.071587 
	C236.445694,121.983124 232.632339,120.617050 228.669907,118.305359 
	C226.451172,117.630989 224.232422,116.956619 221.309143,116.203239 
	C220.841507,116.140167 220.373856,116.077095 219.829025,115.591431 
	C219.568939,115.727875 219.308838,115.864311 218.510803,116.108955 
	C218.332977,116.151741 218.155151,116.194527 217.501846,116.113197 
	C217.501846,116.113197 217.019821,116.208656 216.363098,116.081100 
	C215.924133,116.008141 215.485168,115.935181 214.553101,115.190224 
	C211.701141,115.139771 208.849197,115.089317 205.251923,115.062378 
	C201.168137,117.045731 197.084366,119.029076 192.303070,120.876106 
	C191.549683,121.920776 190.796295,122.965439 189.993118,123.999489 
	C189.993118,123.999489 190.013702,124.046074 189.427216,124.329285 
	C187.605148,126.194519 185.783066,128.059769 183.341721,130.240982 
	C181.539429,133.778442 179.737152,137.315918 177.480179,141.078247 
	C177.359894,141.377609 177.239624,141.676956 177.076355,142.616028 
	C177.030029,143.040665 176.983704,143.465317 176.491653,144.097031 
	C176.190552,144.312225 176.074112,144.601730 176.107635,145.721970 
	C176.055862,146.476761 176.004089,147.231552 175.423309,148.399796 
	C175.367783,149.272858 175.312256,150.145935 175.149506,151.936951 
	C175.106720,155.957062 175.063934,159.977188 174.939285,164.759613 
	C176.477798,168.569168 177.859116,172.455338 179.655014,176.139404 
	C180.163391,177.182281 181.882492,177.634964 184.006165,178.954895 
	C182.036652,168.185257 182.363724,159.361877 187.114685,151.051361 
	C187.114685,151.051361 187.047394,151.045273 187.460770,150.794418 
	C187.716873,150.585175 187.902374,150.325500 188.000000,150.000000 
	C188.000000,150.000000 188.016785,150.014938 188.564789,149.804108 
	C189.068588,149.221680 189.572403,148.639267 190.628296,147.611908 
	C194.409683,146.100189 198.191086,144.588470 201.924530,143.056137 
	C201.924530,143.056137 201.935577,143.107147 202.143860,143.505432 
	C202.477325,143.360565 202.810776,143.215683 203.902374,143.020065 
	C206.610825,140.668167 209.319290,138.316254 212.455597,135.990158 
	C212.455597,135.990158 212.866699,136.111465 212.915863,136.880844 
	C213.010941,137.905518 213.106018,138.930206 213.055923,140.397110 
	C213.055923,140.397110 212.917801,140.841599 212.431091,141.053162 
	C212.322784,141.368103 212.214478,141.683029 212.073273,142.653976 
	C212.032913,143.089294 211.992569,143.524612 211.377502,144.333817 
	C210.569595,145.535797 209.761688,146.737778 208.787262,148.187485 
	C214.583115,154.803497 220.378448,161.418945 226.661392,168.590988 
	C224.651184,168.070709 223.232544,167.703537 221.471588,167.247772 
	C220.737869,173.347610 221.216187,178.779449 225.945587,183.698486 
	C226.278107,184.446442 226.610626,185.194382 226.973541,185.954636 
	C226.973541,185.954636 226.948456,185.963440 226.454788,186.184418 
	C225.985718,186.436310 225.516647,186.688202 224.735565,186.352295 
	C222.255020,183.166687 221.039810,184.993851 220.298752,187.594254 
	C219.762115,189.477310 219.562759,191.462021 219.280884,193.411209 
	C218.183380,201.000839 216.563095,208.608719 219.985764,216.796448 
	C221.593597,218.932999 223.201447,221.069534 224.747681,223.255753 
	C224.747681,223.255753 224.749008,223.334869 224.763443,223.990509 
	C223.622299,224.224823 221.865936,225.044739 221.440521,224.597794 
	C218.808670,221.832733 216.476212,218.782700 213.707947,215.418579 
	C213.107895,218.714340 212.537292,221.848404 211.452988,225.509216 
	C210.286514,229.959885 209.120026,234.410538 207.510574,239.100693 
	C207.369812,239.393158 207.229050,239.685623 207.011520,240.377945 
	C207.011520,240.377945 206.891220,240.766922 206.376373,241.015137 
	C206.234116,241.353561 206.091843,241.691986 205.955551,242.642365 
	C205.892792,243.042725 205.830048,243.443069 205.243149,244.328033 
	C203.183365,248.812210 201.297897,253.390259 198.963196,257.726410 
	C198.210892,259.123657 196.419708,260.435272 194.857849,260.842346 
	C187.384979,262.790009 179.659027,263.903198 172.354630,266.316620 
	C166.678070,268.192169 161.489792,271.545593 155.472549,274.458893 
	C153.680313,275.987946 151.888077,277.516998 150.039001,279.060120 
	C150.039001,279.060120 150.032928,279.118561 149.436874,279.431396 
	C147.644272,281.992950 144.852203,284.352631 144.284851,287.161652 
	C143.349380,291.793304 143.057266,297.179840 147.078171,300.718933 
	C150.882904,304.067749 155.102325,307.496246 159.757614,309.222443 
	C172.663635,314.008118 185.687515,318.783020 199.045441,321.963745 
	C215.040970,325.772583 231.511703,327.153564 248.022858,326.936279 
	C257.407104,326.812775 266.788605,326.478210 276.891968,326.088898 
	C281.448486,325.650696 286.066193,325.538940 290.547272,324.698517 
	C297.420685,323.409424 304.200043,321.618896 311.499084,320.003113 
	C311.499084,320.003113 311.980316,320.011322 312.191467,320.278076 
	C312.464447,320.188843 312.737427,320.099579 313.000000,320.000000 
	C313.000000,320.000000 313.009521,320.013031 313.582825,319.917419 
	C314.055908,319.613617 314.529022,319.309845 315.528381,318.976135 
	C315.703949,318.982544 315.879547,318.988983 316.268066,319.385315 
	C316.449738,319.632538 316.686646,319.803070 317.577820,319.734955 
	C323.402832,317.516998 329.227844,315.299042 335.775299,313.042053 
	C337.880341,312.076935 339.985352,311.111816 342.806152,310.067261 
	C348.790375,306.435242 355.840912,304.135712 359.695343,296.676270 
	C363.035400,292.508820 362.990662,288.210388 359.825195,283.375732 
	C359.243195,282.902679 358.661194,282.429626 357.865082,281.492676 
	C357.593506,281.294830 357.321899,281.097015 356.919678,280.244080 
	C355.954224,279.480743 354.988770,278.717407 353.702423,277.350616 
	C344.908447,269.614197 334.091736,266.595825 322.388977,263.811951 
	C321.255188,263.619110 320.121429,263.426239 318.551300,263.060242 
	C318.551300,263.060242 318.121033,262.872620 317.949951,262.391296 
	C317.648468,262.284912 317.346985,262.178497 316.369080,262.051941 
	C315.925018,262.126038 315.480988,262.200134 314.394318,262.106567 
	C313.389435,262.205627 312.384521,262.304657 311.379639,262.403717 
	C311.857239,263.963654 312.334839,265.523560 312.955750,267.692444 
	C312.926086,268.106659 312.896454,268.520905 312.305359,269.287109 
	C311.857819,270.501465 311.410309,271.715790 310.374878,273.251526 
	C307.904785,275.481476 305.434692,277.711426 302.222961,279.985870 
	C299.488556,280.996521 296.754120,282.007172 293.359558,283.297668 
	C289.910583,284.560547 286.461639,285.823425 282.223694,287.158173 
	C275.494476,288.168945 268.765289,289.179749 261.174774,290.114380 
	C253.124252,289.965820 245.036072,290.239380 237.035904,289.526123 
	C231.330566,289.017426 225.743484,287.182312 219.618027,285.431366 
	C216.083755,283.642334 212.549469,281.853333 209.015198,280.064331 
	C226.928391,284.265137 244.610764,286.308929 262.749329,282.125458 
	C261.365387,280.923767 259.827606,280.462891 258.293396,279.990540 
	C256.141144,279.327942 253.991562,278.656769 252.391449,277.685883 
	C254.273788,277.508606 256.156128,277.331329 258.745544,277.097565 
	C259.836029,276.719360 260.926514,276.341187 262.459686,276.446198 
	C263.310944,276.583160 264.162170,276.720154 265.708252,276.699036 
	C269.811157,275.134766 273.914032,273.570526 278.505280,271.983582 
	C278.505280,271.983582 278.993591,272.008850 279.285767,272.429993 
	C279.888824,272.346375 280.491913,272.262787 281.824280,272.030762 
	C286.549500,269.994385 291.274750,267.958038 296.578552,265.844513 
	C297.060974,265.261719 297.543427,264.678925 298.096497,264.141754 
	C298.096497,264.141754 298.145996,264.073792 298.849548,264.106689 
	C301.186707,262.415344 303.523834,260.723969 305.967346,258.955627 
	C304.887573,256.650177 304.012451,254.781693 302.988403,252.268692 
	C302.921600,251.832947 302.854767,251.397186 302.753998,250.496964 
	C302.587891,250.210663 302.343475,250.030762 302.000885,250.004349 
M357.643188,369.637482 
	C357.643188,369.637482 357.726685,369.385529 358.227356,369.108917 
	C360.343811,366.837036 359.471588,365.232056 357.062744,363.944122 
	C357.062744,363.944122 357.036743,363.934021 356.858398,363.525848 
	C356.564484,363.679138 356.270599,363.832428 355.481018,364.091614 
	C355.317535,364.134216 355.154022,364.176819 354.504517,364.112976 
	C354.504517,364.112976 354.017700,364.215454 353.336487,364.119568 
	C352.880096,364.151550 352.423676,364.183533 351.112701,364.060150 
	C349.092163,364.118896 347.071625,364.177673 344.133331,364.139618 
	C341.211456,364.139618 338.289612,364.139618 335.330536,364.139618 
	C334.196472,368.152100 335.888672,369.816254 339.544098,369.932190 
	C342.331268,370.020599 345.121765,370.006195 347.926636,370.743103 
	C344.210876,375.673370 340.298584,380.470398 336.838623,385.574097 
	C333.812439,390.037933 334.780731,391.795868 340.032715,391.953796 
	C345.180573,392.108551 350.345520,392.141327 355.484192,391.870880 
	C356.955322,391.793427 358.361237,390.476807 359.797058,389.728363 
	C358.351074,388.483521 357.052582,386.472748 355.427155,386.159729 
	C352.417572,385.580200 349.216705,385.993866 345.118958,385.993866 
	C346.955353,383.493073 348.242554,381.700256 349.572693,379.939880 
	C350.943451,378.125732 352.356018,376.343170 353.862518,374.503693 
	C353.862518,374.503693 353.839355,374.385742 354.250824,374.188629 
	C354.545868,373.853912 354.840942,373.519226 355.680634,372.858368 
	C355.830109,372.256500 355.979584,371.654663 356.541290,370.821899 
	C356.824188,370.453644 357.107086,370.085358 357.643188,369.637482 
M286.947388,389.051025 
	C286.947388,389.051025 287.013153,389.049927 287.061584,389.725281 
	C289.816925,393.367889 292.128021,393.333466 294.145844,389.573364 
	C294.765625,388.418427 295.223724,387.176758 295.961945,385.242554 
	C297.071381,382.120819 298.180847,378.999054 299.422455,375.505463 
	C300.272522,376.741364 300.720581,377.392822 300.864716,378.549530 
	C301.228424,379.041321 301.592133,379.533142 302.121979,380.514313 
	C302.163239,380.681610 302.204498,380.848877 302.086182,381.597229 
	C302.368225,382.068268 302.650269,382.539307 303.019958,383.699158 
	C303.035889,384.161743 303.051819,384.624359 302.933716,385.695312 
	C303.253876,386.151459 303.574005,386.607635 304.100220,387.561310 
	C304.141693,387.735931 304.183197,387.910553 304.067841,388.647430 
	C304.351044,389.090729 304.634247,389.534058 304.923615,390.077271 
	C304.923615,390.077271 305.023682,390.074402 305.089478,390.768921 
	C307.750214,394.143951 310.100677,393.137909 311.841949,390.001404 
	C312.843597,388.197205 313.189819,386.029175 314.138916,383.342773 
	C315.707520,378.841797 317.455688,374.392120 318.761932,369.816254 
	C319.335327,367.807709 320.222992,364.623932 316.851166,364.399323 
	C315.350616,364.299408 313.010956,366.386749 312.230957,368.038116 
	C310.587067,371.518311 309.720612,375.365692 308.535126,379.062408 
	C308.045776,379.021179 307.556427,378.979919 307.067078,378.938690 
	C306.055023,375.375092 305.328156,371.693329 303.919312,368.294220 
	C303.129761,366.389374 301.210846,364.952637 299.800781,363.304932 
	C298.164948,364.902710 295.943970,366.221466 295.020111,368.158783 
	C293.315796,371.732788 292.372711,375.669769 290.909271,380.065796 
	C288.147858,373.775269 285.653778,368.093719 283.159668,362.412170 
	C282.456665,362.516449 281.753662,362.620697 281.050659,362.724976 
	C280.413544,364.358856 278.976532,366.170624 279.292755,367.592499 
	C280.161835,371.500183 281.766449,375.244293 282.941101,379.754425 
	C283.595673,381.188934 284.250275,382.623444 285.062897,384.537292 
	C285.094757,384.702454 285.126617,384.867645 285.003510,385.687592 
	C285.651550,386.786804 286.299591,387.886047 286.947388,389.051025 
M258.983612,390.881226 
	C260.577484,391.537659 262.239471,392.813385 263.743011,392.648071 
	C264.878052,392.523254 266.295410,390.705505 266.709198,389.369354 
	C267.217255,387.728821 266.811554,385.805237 266.895050,383.142426 
	C266.930023,378.976837 266.584656,374.620178 271.752808,372.901825 
	C277.745728,370.909241 277.929749,370.567230 276.082336,363.374512 
	C273.206512,364.140991 270.332275,364.907013 267.090485,365.770996 
	C266.690308,365.457733 265.788330,364.751587 264.748047,363.794067 
	C264.748047,363.794067 264.372711,363.725403 264.372711,363.725403 
	C264.372711,363.725403 264.107361,364.041351 263.340118,364.088165 
	C262.575134,364.156372 261.810150,364.224609 260.435730,364.189697 
	C259.958130,364.472809 259.480530,364.755920 258.185242,365.362152 
	C258.119293,371.815582 257.975464,378.269745 258.037628,384.721924 
	C258.054962,386.521210 258.681152,388.314667 258.983612,390.881226 
M328.927582,364.393982 
	C328.711487,364.048767 328.420227,363.964691 327.358307,364.139465 
	C326.897064,364.177490 326.435822,364.215515 325.399445,364.115540 
	C324.937225,364.395752 324.475006,364.675964 323.181793,365.281647 
	C323.110718,371.748047 322.960449,378.215179 323.019592,384.680389 
	C323.036072,386.483398 323.671234,388.280792 324.038910,390.895325 
	C328.649872,393.190704 330.627167,392.413391 330.836212,387.807281 
	C331.106934,381.841766 331.100433,375.853882 330.922241,369.884308 
	C330.873230,368.242188 329.786194,366.631104 329.156219,364.887238 
	C329.156219,364.887238 329.036194,364.883026 328.927582,364.393982 
M231.943405,364.942169 
	C231.943405,364.942169 231.913147,364.933167 231.213562,364.986877 
	C223.909882,368.847870 223.743240,375.606506 224.071167,382.568970 
	C224.352615,388.545074 228.847351,390.627014 233.476822,391.931549 
	C239.106522,393.517944 244.804352,393.794434 249.512802,389.061554 
	C254.150345,384.399994 255.814178,379.179047 253.015228,372.220856 
	C251.024033,367.042114 247.158356,364.149994 241.745605,363.646881 
	C238.877991,363.380341 235.941711,363.852448 232.588272,364.202972 
	C232.315735,364.402252 232.107681,364.654663 231.943405,364.942169 
M197.779205,389.557526 
	C197.563065,381.321930 197.346924,373.086334 196.744064,364.304810 
	C192.037994,363.058929 190.270447,364.284973 189.971970,368.769714 
	C189.721420,372.534424 189.805923,376.458221 188.685226,379.974762 
	C188.054977,381.952423 185.283249,383.247559 183.476288,384.850189 
	C182.002380,382.827393 179.768356,380.984283 179.237610,378.738617 
	C178.492554,375.586090 178.947800,372.133118 179.012390,368.811035 
	C179.070709,365.810730 178.066574,364.094788 174.715317,364.180023 
	C171.040680,364.273590 170.881012,366.601013 171.074478,369.306915 
	C171.405090,373.931122 171.831131,378.551147 172.037155,383.180969 
	C172.343628,390.068146 176.495087,393.549774 183.405365,392.860992 
	C186.143784,392.588104 188.943787,392.981812 191.715729,392.981232 
	C193.994354,392.980743 196.603973,393.456818 197.779205,389.557526 
M205.994110,360.230072 
	C205.014496,361.424683 204.154800,362.748932 203.031433,363.788177 
	C200.301331,366.313812 200.577927,368.662872 203.469147,370.783844 
	C204.698318,371.685547 205.695526,373.536194 205.895370,375.072968 
	C206.278564,378.019684 206.039474,381.050446 206.017761,384.046051 
	C205.976669,389.713623 212.253067,394.430756 217.641510,392.436829 
	C218.961487,391.948364 220.332245,389.996307 220.516281,388.567352 
	C220.652924,387.506378 219.096130,385.406158 217.970795,385.141449 
	C212.120148,383.765381 214.578873,379.147949 214.048828,375.774811 
	C213.608688,372.973785 214.384933,371.088745 217.857391,370.722870 
	C219.038757,370.598419 220.472366,368.453705 220.842804,366.991882 
	C221.016464,366.306641 218.986954,364.269073 217.875793,364.203644 
	C214.752670,364.019531 214.219330,362.471558 213.797379,359.780670 
	C213.577728,358.380005 211.732681,356.626770 210.267166,356.169556 
	C207.995712,355.460846 205.945526,356.381958 205.994110,360.230072 
M165.819794,385.688385 
	C163.946411,384.367249 160.899719,383.345886 160.468124,381.656433 
	C159.780014,378.962982 160.435699,375.696747 161.328491,372.932892 
	C161.729614,371.691071 164.167984,371.194458 165.507996,370.138885 
	C166.442474,369.402740 167.647781,368.317871 167.693848,367.339905 
	C167.740494,366.349152 166.479324,364.398041 165.844620,364.419952 
	C161.746796,364.561493 160.976715,362.268707 160.568832,358.854858 
	C160.424515,357.646912 158.215973,355.653137 157.247772,355.813782 
	C155.727554,356.066040 153.497803,357.684509 153.283432,359.003204 
	C152.820618,361.850403 151.898926,363.437988 149.040649,364.343781 
	C147.997452,364.674347 146.992508,366.767700 146.964951,368.077728 
	C146.946884,368.935913 148.753693,370.616638 149.674911,370.570312 
	C153.075653,370.399323 153.021210,372.506134 153.030579,374.761902 
	C153.046463,378.588013 152.855255,382.426727 153.104874,386.237000 
	C153.392441,390.626984 157.651230,393.496552 162.508820,392.791138 
	C166.493973,392.212402 168.005356,390.049683 165.819794,385.688385 
M328.771423,353.338348 
	C326.445374,352.843323 323.601715,352.323090 323.619171,355.646576 
	C323.630157,357.741150 325.429504,359.826355 326.426605,361.915741 
	C328.019623,360.756012 330.149170,359.888275 331.000092,358.324707 
	C331.493561,357.417908 329.931122,355.392303 328.771423,353.338348 
z"/>
<path fill="#1E1841" opacity="1.000000" stroke="none" 
	d="
M276.171326,326.238708 
	C266.788605,326.478210 257.407104,326.812775 248.022858,326.936279 
	C231.511703,327.153564 215.040970,325.772583 199.045441,321.963745 
	C185.687515,318.783020 172.663635,314.008118 159.757614,309.222443 
	C155.102325,307.496246 150.882904,304.067749 147.078171,300.718933 
	C143.057266,297.179840 143.349380,291.793304 144.284851,287.161652 
	C144.852203,284.352631 147.644272,281.992950 149.697571,279.643921 
	C149.771317,281.680237 149.584381,283.504059 149.251541,286.751251 
	C153.647308,284.363739 156.784698,282.659668 159.922089,280.955627 
	C159.887497,282.623138 159.081360,283.798981 158.372131,285.030609 
	C157.514023,286.520782 156.737915,288.058105 155.926315,289.575012 
	C157.910934,289.653290 159.899826,289.674622 161.879196,289.823059 
	C164.889786,290.048798 168.379135,289.503326 170.777100,290.857666 
	C173.741165,292.531799 175.954819,292.293640 179.075333,291.826172 
	C183.096207,291.223846 188.656723,290.811554 191.269180,293.020172 
	C196.516968,297.456696 202.113724,298.141541 207.500458,296.275513 
	C212.962631,294.383331 216.041901,296.310669 218.290436,300.220673 
	C220.577118,304.197021 223.603027,305.134399 227.772263,305.056122 
	C236.368332,304.894684 244.450974,306.296539 250.223007,313.708710 
	C252.593323,316.752533 257.744232,317.943207 256.529541,323.431122 
	C256.470673,323.697144 258.602051,324.855164 259.741669,324.901245 
	C262.888184,325.028503 266.063568,324.564819 269.200592,324.762451 
	C271.545868,324.910217 273.849274,325.722382 276.171326,326.238708 
z"/>
<path fill="#201647" opacity="1.000000" stroke="none" 
	d="
M276.531647,326.163818 
	C273.849274,325.722382 271.545868,324.910217 269.200592,324.762451 
	C266.063568,324.564819 262.888184,325.028503 259.741669,324.901245 
	C258.602051,324.855164 256.470673,323.697144 256.529541,323.431122 
	C257.744232,317.943207 252.593323,316.752533 250.223007,313.708710 
	C244.450974,306.296539 236.368332,304.894684 227.772263,305.056122 
	C223.603027,305.134399 220.577118,304.197021 218.290436,300.220673 
	C216.041901,296.310669 212.962631,294.383331 207.500458,296.275513 
	C202.113724,298.141541 196.516968,297.456696 191.269180,293.020172 
	C188.656723,290.811554 183.096207,291.223846 179.075333,291.826172 
	C175.954819,292.293640 173.741165,292.531799 170.777100,290.857666 
	C168.379135,289.503326 164.889786,290.048798 161.879196,289.823059 
	C159.899826,289.674622 157.910934,289.653290 155.926315,289.575012 
	C156.737915,288.058105 157.514023,286.520782 158.372131,285.030609 
	C159.081360,283.798981 159.887497,282.623138 159.922089,280.955627 
	C156.784698,282.659668 153.647308,284.363739 149.251541,286.751251 
	C149.584381,283.504059 149.771317,281.680237 149.995590,279.487488 
	C150.032928,279.118561 150.039001,279.060120 150.409195,279.004578 
	C152.545624,277.621460 154.311859,276.293915 156.445724,274.981689 
	C158.227036,275.745422 159.614304,276.550110 161.060715,277.228699 
	C163.115280,278.192657 165.136108,279.405273 167.310379,279.897095 
	C170.841553,280.695923 174.472626,281.272186 178.084839,281.439636 
	C182.848190,281.660492 187.701187,281.854675 192.385513,281.170013 
	C195.273804,280.747864 197.164948,280.908783 199.538803,282.784882 
	C205.675446,287.634674 212.523438,289.642426 220.103638,285.939117 
	C225.743484,287.182312 231.330566,289.017426 237.035904,289.526123 
	C245.036072,290.239380 253.124252,289.965820 261.595764,290.535339 
	C262.700165,296.484070 256.843933,294.835968 254.364151,297.577301 
	C255.592682,298.138397 256.412079,298.603729 257.288757,298.898895 
	C265.877869,301.790558 274.611481,304.316101 283.013611,307.672638 
	C287.008514,309.268555 290.428253,312.017426 295.148529,310.681824 
	C295.978302,310.447052 297.603943,311.167969 298.101929,311.938660 
	C300.275940,315.303009 303.168945,316.919189 307.177429,317.256714 
	C308.526642,317.370331 309.742493,319.067688 311.019318,320.041199 
	C304.200043,321.618896 297.420685,323.409424 290.547272,324.698517 
	C286.066193,325.538940 281.448486,325.650696 276.531647,326.163818 
M229.099930,301.592957 
	C229.283234,300.851379 229.466537,300.109772 229.649857,299.368195 
	C228.734741,299.502716 227.819641,299.637268 226.904526,299.771790 
	C227.435745,300.408386 227.966980,301.044983 229.099930,301.592957 
z"/>
<path fill="#23184C" opacity="1.000000" stroke="none" 
	d="
M219.860840,285.685242 
	C212.523438,289.642426 205.675446,287.634674 199.538803,282.784882 
	C197.164948,280.908783 195.273804,280.747864 192.385513,281.170013 
	C187.701187,281.854675 182.848190,281.660492 178.084839,281.439636 
	C174.472626,281.272186 170.841553,280.695923 167.310379,279.897095 
	C165.136108,279.405273 163.115280,278.192657 161.060715,277.228699 
	C159.614304,276.550110 158.227036,275.745422 156.442322,274.800812 
	C156.071304,274.604584 156.084488,274.242157 156.084488,274.242157 
	C161.489792,271.545593 166.678070,268.192169 172.354630,266.316620 
	C179.659027,263.903198 187.384979,262.790009 194.857849,260.842346 
	C196.419708,260.435272 198.210892,259.123657 198.963196,257.726410 
	C201.297897,253.390259 203.183365,248.812210 205.726105,244.348511 
	C205.973801,245.920273 205.516022,247.479111 205.568298,249.020645 
	C205.616837,250.451523 206.049789,253.025711 206.588562,253.099915 
	C210.743118,253.672302 212.757843,256.786255 215.576248,259.251862 
	C220.505814,263.564362 226.251801,266.937378 231.590027,270.794922 
	C232.515976,271.464020 233.118393,272.580902 233.955002,273.593536 
	C230.394424,276.613373 224.419342,271.147064 222.834106,277.736694 
	C232.246841,279.574646 241.569199,281.394958 250.459320,283.130859 
	C251.104355,280.730255 251.472610,279.359772 251.840851,277.989288 
	C253.991562,278.656769 256.141144,279.327942 258.293396,279.990540 
	C259.827606,280.462891 261.365387,280.923767 262.749329,282.125458 
	C244.610764,286.308929 226.928391,284.265137 209.015198,280.064331 
	C212.549469,281.853333 216.083755,283.642334 219.860840,285.685242 
z"/>
<path fill="#2D1960" opacity="1.000000" stroke="none" 
	d="
M278.016937,272.006256 
	C273.914032,273.570526 269.811157,275.134766 265.257629,276.512512 
	C263.876984,276.204987 262.946991,276.084015 262.016998,275.963013 
	C260.926514,276.341187 259.836029,276.719360 258.317383,276.763824 
	C255.665390,273.443054 253.642395,270.275085 251.160660,267.520416 
	C248.732361,264.825043 244.865829,263.041565 243.328384,259.999695 
	C238.768280,250.977448 230.121323,247.335617 222.236374,242.726486 
	C219.665253,241.223557 217.774841,240.462357 218.644135,236.921127 
	C219.351746,234.038559 217.783279,232.920502 214.852646,234.019485 
	C214.015076,234.333542 213.020813,234.229675 211.966690,234.329971 
	C211.966690,230.992828 211.966690,227.987640 211.966675,224.982468 
	C212.537292,221.848404 213.107895,218.714340 213.707947,215.418579 
	C216.476212,218.782700 218.808670,221.832733 221.440521,224.597794 
	C221.865936,225.044739 223.622299,224.224823 225.180908,223.584625 
	C227.291687,223.845612 229.568924,224.038071 230.568588,225.268509 
	C233.544846,228.931778 236.019089,233.002884 238.869690,237.178574 
	C240.766617,235.235001 241.862991,234.111649 242.982986,233.298431 
	C244.190948,233.894913 245.488037,234.621704 246.530746,234.354782 
	C247.799850,234.029922 248.854813,232.868484 250.003448,232.309998 
	C250.004471,232.551056 250.063324,233.029602 250.060455,233.420700 
	C250.236832,235.775970 250.608490,237.745239 250.556732,239.703308 
	C250.434906,244.314011 252.467255,247.949402 256.281738,249.970230 
	C261.550720,252.761658 264.562592,256.959198 267.314301,262.097321 
	C269.576019,266.320526 270.803497,272.720947 278.016937,272.006256 
z"/>
<path fill="#3D1F7D" opacity="1.000000" stroke="none" 
	d="
M225.943253,183.074692 
	C221.216187,178.779449 220.737869,173.347610 221.471588,167.247772 
	C223.232544,167.703537 224.651184,168.070709 226.661392,168.590988 
	C220.378448,161.418945 214.583115,154.803497 208.787262,148.187485 
	C209.761688,146.737778 210.569595,145.535797 211.871521,144.436722 
	C213.378906,146.583786 213.856918,149.539352 215.503036,150.506302 
	C221.110672,153.800247 221.578201,162.100662 228.738739,163.665588 
	C229.109085,163.746552 229.649429,164.435379 229.612579,164.789337 
	C228.868668,171.933075 232.449036,176.901001 237.655853,181.095688 
	C237.858887,181.259247 237.784348,181.735214 237.902435,182.041183 
	C239.547104,186.303024 241.052704,190.629745 242.959824,194.771362 
	C243.445831,195.826813 245.301025,196.183472 246.377487,197.047623 
	C250.274155,200.175674 254.278015,203.209274 257.827728,206.699265 
	C258.586578,207.445374 257.139862,210.092941 257.581146,211.611099 
	C257.940186,212.846298 259.449066,213.992691 260.719360,214.668564 
	C263.730957,216.270920 266.903717,217.570312 269.927765,219.322906 
	C269.022705,221.804672 265.820435,223.230606 268.746979,226.423141 
	C271.247864,229.151260 272.584076,232.911194 274.867462,235.882782 
	C278.523193,240.640381 282.423035,245.225006 286.431305,249.692902 
	C290.212311,253.907455 295.160980,257.332397 294.710724,264.065948 
	C292.601501,264.827942 290.804413,265.412720 288.996887,265.621826 
	C284.798370,253.867767 275.635956,246.653839 266.778259,238.865982 
	C266.028961,239.497894 265.508698,240.256882 264.989136,241.255386 
	C264.989807,241.494888 264.996124,241.973846 264.661102,241.942230 
	C261.991425,241.142960 259.656769,240.375320 256.772369,239.426941 
	C256.816498,238.556076 256.905060,236.807739 257.369995,235.112274 
	C262.669800,236.871201 260.656555,232.860672 261.056000,231.025009 
	C261.813812,227.542511 259.207520,222.756973 265.036316,221.267883 
	C265.433838,221.166351 265.877289,219.757294 265.667389,219.190262 
	C265.463898,218.640518 264.407684,218.010269 263.790131,218.070755 
	C257.029938,218.732986 254.582397,214.838135 253.827164,208.963547 
	C253.759155,208.434433 253.105515,207.980591 252.341766,207.002518 
	C251.475464,208.998962 250.801880,210.551224 249.790237,212.181427 
	C246.521469,215.268723 243.260147,217.013062 239.037018,214.628235 
	C241.325958,210.321182 240.096497,206.721176 238.085846,203.109909 
	C235.953644,199.280319 234.213409,195.211868 231.839844,191.547043 
	C230.825165,189.980377 228.640167,189.171661 226.983643,187.676071 
	C226.969711,186.876877 226.959091,186.420151 226.948456,185.963440 
	C226.948456,185.963440 226.973541,185.954636 227.255035,185.856369 
	C230.115204,183.017212 227.430878,183.401215 225.943253,183.074692 
M225.480698,180.500778 
	C225.480698,180.500778 225.528671,180.479355 225.480698,180.500778 
z"/>
<path fill="#271854" opacity="1.000000" stroke="none" 
	d="
M211.709839,225.245850 
	C211.966690,227.987640 211.966690,230.992828 211.966690,234.329971 
	C213.020813,234.229675 214.015076,234.333542 214.852646,234.019485 
	C217.783279,232.920502 219.351746,234.038559 218.644135,236.921127 
	C217.774841,240.462357 219.665253,241.223557 222.236374,242.726486 
	C230.121323,247.335617 238.768280,250.977448 243.328384,259.999695 
	C244.865829,263.041565 248.732361,264.825043 251.160660,267.520416 
	C253.642395,270.275085 255.665390,273.443054 257.963837,276.792053 
	C256.156128,277.331329 254.273788,277.508606 252.116150,277.837585 
	C251.472610,279.359772 251.104355,280.730255 250.459320,283.130859 
	C241.569199,281.394958 232.246841,279.574646 222.834106,277.736694 
	C224.419342,271.147064 230.394424,276.613373 233.955002,273.593536 
	C233.118393,272.580902 232.515976,271.464020 231.590027,270.794922 
	C226.251801,266.937378 220.505814,263.564362 215.576248,259.251862 
	C212.757843,256.786255 210.743118,253.672302 206.588562,253.099915 
	C206.049789,253.025711 205.616837,250.451523 205.568298,249.020645 
	C205.516022,247.479111 205.973801,245.920273 205.988174,244.106201 
	C205.830048,243.443069 205.892792,243.042725 206.132385,242.142914 
	C206.503204,241.351273 206.697205,241.059097 206.891205,240.766922 
	C206.891220,240.766922 207.011520,240.377945 207.216553,240.010605 
	C207.635071,239.407181 207.812393,239.146500 207.953552,238.861206 
	C209.120026,234.410538 210.286514,229.959885 211.709839,225.245850 
z"/>
<path fill="#421D8C" opacity="1.000000" stroke="none" 
	d="
M270.011353,218.992157 
	C266.903717,217.570312 263.730957,216.270920 260.719360,214.668564 
	C259.449066,213.992691 257.940186,212.846298 257.581146,211.611099 
	C257.139862,210.092941 258.586578,207.445374 257.827728,206.699265 
	C254.278015,203.209274 250.274155,200.175674 246.377487,197.047623 
	C245.301025,196.183472 243.445831,195.826813 242.959824,194.771362 
	C241.052704,190.629745 239.547104,186.303024 237.902435,182.041183 
	C237.784348,181.735214 237.858887,181.259247 237.655853,181.095688 
	C232.449036,176.901001 228.868668,171.933075 229.612579,164.789337 
	C229.649429,164.435379 229.109085,163.746552 228.738739,163.665588 
	C221.578201,162.100662 221.110672,153.800247 215.503036,150.506302 
	C213.856918,149.539352 213.378906,146.583786 212.158875,144.249786 
	C211.992569,143.524612 212.032913,143.089294 212.249222,142.150543 
	C212.631805,141.404541 212.796021,141.136047 212.917801,140.841599 
	C212.917801,140.841599 213.055923,140.397110 213.291885,139.916321 
	C213.686615,138.640305 213.845383,137.845062 214.367538,137.113037 
	C215.860352,137.811264 217.606964,138.184189 218.007965,139.128510 
	C219.431564,142.480927 218.728607,147.538727 224.843323,146.504913 
	C227.241547,152.152222 232.134567,149.388428 236.440521,149.861511 
	C237.541138,149.910660 238.276199,149.934555 238.994339,150.270996 
	C239.302521,151.701935 239.627640,152.820358 239.974579,153.963303 
	C239.996399,153.987839 240.044815,154.032257 239.981247,154.310181 
	C239.614899,155.062958 239.312103,155.537781 238.586044,156.007843 
	C236.019287,156.186584 233.875809,156.370117 232.384521,156.497803 
	C234.042725,160.016312 235.675766,162.911911 236.802032,165.992783 
	C238.978119,171.945511 240.308136,178.207932 245.896393,182.369797 
	C250.775925,186.003830 255.305069,190.108353 260.203674,194.193726 
	C260.945129,194.590057 261.471954,194.797684 262.000793,195.340256 
	C262.011536,196.121964 262.020233,196.568726 262.143860,197.317963 
	C263.172913,198.081512 264.087067,198.542542 264.944458,199.327576 
	C265.061798,200.643616 265.235901,201.635666 265.409973,202.627716 
	C266.939819,201.754166 268.469604,200.880615 270.294678,200.083298 
	C271.089661,200.495499 271.589386,200.831482 272.089081,201.167465 
	C270.818726,202.519669 269.548370,203.871857 267.726166,205.811462 
	C269.393250,205.489456 270.368256,205.301132 271.626984,205.485809 
	C270.549133,207.060913 269.187531,208.263000 268.572693,208.805801 
	C272.287781,211.969406 276.321136,214.887527 279.697235,218.431732 
	C282.757721,221.644547 285.240387,225.447922 287.707764,229.169922 
	C289.090057,231.255112 289.923920,233.703842 290.609009,235.989792 
	C284.603271,236.115921 282.370209,232.099564 280.104919,227.944473 
	C277.840698,223.791336 276.787109,218.116989 270.011353,218.992157 
z"/>
<path fill="#5C22B7" opacity="1.000000" stroke="none" 
	d="
M215.046204,115.862213 
	C215.485168,115.935181 215.924133,116.008141 216.796844,116.231522 
	C217.230576,116.381950 217.625610,116.427048 217.625610,116.427048 
	C217.625610,116.427048 217.977325,116.237312 217.977325,116.237312 
	C218.155151,116.194527 218.332977,116.151741 218.993805,116.069527 
	C219.476807,116.030098 219.906219,116.014023 219.906219,116.014023 
	C220.373856,116.077095 220.841507,116.140167 221.800568,116.528915 
	C224.536713,117.542107 226.781448,118.229614 229.026184,118.917130 
	C232.632339,120.617050 236.445694,121.983124 239.810699,124.071587 
	C260.197296,136.724335 272.482422,155.876572 281.955078,177.221771 
	C282.078552,177.500015 281.979187,177.877197 281.803894,178.873718 
	C281.076569,181.687332 280.529205,183.835434 279.665344,185.847504 
	C276.784363,181.317871 274.506653,176.720291 271.570099,172.591293 
	C268.931946,168.881851 264.600433,166.139633 262.744995,162.163834 
	C259.631287,155.491852 253.118225,153.043182 248.399368,148.446884 
	C248.085175,148.140854 247.462875,148.151138 246.653366,148.014679 
	C245.882156,148.011093 245.441483,148.007111 245.229248,147.750229 
	C250.503433,142.348755 250.031219,141.386429 243.115570,138.642075 
	C239.723389,137.295959 235.789261,135.225662 234.005661,132.315430 
	C229.047729,124.225693 221.503265,121.518631 213.020248,119.664352 
	C213.712219,118.169739 214.379211,117.015976 215.046204,115.862213 
M278.661896,176.097580 
	C278.882263,176.057907 279.102600,176.018234 279.322968,175.978561 
	C279.105713,175.926559 278.888428,175.874542 278.661896,176.097580 
z"/>
<path fill="#271854" opacity="1.000000" stroke="none" 
	d="
M311.259216,320.022156 
	C309.742493,319.067688 308.526642,317.370331 307.177429,317.256714 
	C303.168945,316.919189 300.275940,315.303009 298.101929,311.938660 
	C297.603943,311.167969 295.978302,310.447052 295.148529,310.681824 
	C290.428253,312.017426 287.008514,309.268555 283.013611,307.672638 
	C274.611481,304.316101 265.877869,301.790558 257.288757,298.898895 
	C256.412079,298.603729 255.592682,298.138397 254.364151,297.577301 
	C256.843933,294.835968 262.700165,296.484070 262.026428,290.573395 
	C268.765289,289.179749 275.494476,288.168945 282.530151,287.455200 
	C280.165436,291.701813 281.919434,293.303497 285.624023,295.662170 
	C290.906036,299.025146 295.266388,303.835663 300.117615,308.394623 
	C302.467957,308.950775 304.807068,309.612549 306.954559,309.221588 
	C310.381439,308.597687 313.680878,307.273712 316.914978,306.528137 
	C315.868988,307.963867 314.942291,309.117249 313.174164,311.317841 
	C316.547485,310.556396 318.592224,309.690369 320.526337,309.891022 
	C321.151703,309.955933 321.486633,312.820770 322.173492,315.146667 
	C324.227997,314.605957 326.844818,313.756775 329.527313,313.267609 
	C331.320862,312.940552 333.207733,313.125336 335.052856,313.081055 
	C329.227844,315.299042 323.402832,317.516998 317.142670,319.648193 
	C316.514160,319.345032 316.296722,319.156372 316.055145,318.995453 
	C315.879547,318.988983 315.703949,318.982544 315.065002,318.854004 
	C314.070953,319.158905 313.540253,319.585968 313.009521,320.013031 
	C313.009521,320.013031 313.000000,320.000000 312.747650,320.002625 
	C312.323669,320.007294 312.152008,320.009308 311.980316,320.011322 
	C311.980316,320.011322 311.499084,320.003113 311.259216,320.022156 
z"/>
<path fill="#4F1FA3" opacity="1.000000" stroke="none" 
	d="
M245.000793,148.003143 
	C245.441483,148.007111 245.882156,148.011093 246.660004,148.413727 
	C247.534332,153.031662 248.950470,156.995697 250.169113,160.975403 
	C252.211594,167.645264 257.365814,171.058853 260.926514,175.903122 
	C265.461334,182.072647 271.502411,187.135025 276.740906,192.517227 
	C277.575623,190.834442 278.778748,188.408997 279.981873,185.983551 
	C280.529205,183.835434 281.076569,181.687332 281.856689,179.252548 
	C286.046265,184.577927 283.068939,189.576004 280.179138,194.128799 
	C278.417969,196.903458 275.303589,198.819168 272.443054,201.144073 
	C271.589386,200.831482 271.089661,200.495499 270.269958,199.769836 
	C268.598572,195.335602 266.613342,199.621124 265.001221,199.003586 
	C264.087067,198.542542 263.172913,198.081512 262.378662,197.239258 
	C262.332001,196.240448 262.165405,195.622879 261.998779,195.005295 
	C261.471954,194.797684 260.945129,194.590057 260.348999,193.866791 
	C259.964203,191.524582 260.240387,189.229980 259.230194,187.953003 
	C255.007812,182.615433 250.731918,177.236954 245.838303,172.537094 
	C240.979599,167.870773 239.333618,162.324036 239.009323,156.012619 
	C239.312103,155.537781 239.614899,155.062958 240.229599,154.228470 
	C240.907822,153.373474 241.274124,152.878113 241.640427,152.382767 
	C241.407318,152.241745 241.174194,152.100723 240.941086,151.959702 
	C240.611649,152.619385 240.282196,153.279083 239.952744,153.938766 
	C239.627640,152.820358 239.302521,151.701935 239.288879,150.073425 
	C241.400513,149.043259 243.200653,148.523193 245.000793,148.003143 
z"/>
<path fill="#3D1C85" opacity="1.000000" stroke="none" 
	d="
M269.927765,219.322906 
	C276.787109,218.116989 277.840698,223.791336 280.104919,227.944473 
	C282.370209,232.099564 284.603271,236.115921 290.607849,235.994751 
	C291.002563,235.998703 291.012726,235.994568 290.867737,236.323090 
	C290.563782,238.137573 290.404816,239.623535 290.245880,241.109497 
	C292.985992,239.593491 298.125031,239.529510 293.981598,234.564911 
	C293.643951,230.093872 293.305298,226.054108 292.966644,222.014343 
	C295.309937,229.689575 297.653198,237.364792 300.156921,245.643616 
	C300.533997,246.503357 300.750702,246.759476 300.967377,247.015610 
	C300.967377,247.015610 300.997681,247.466415 301.068268,247.982483 
	C301.442169,248.994507 301.745483,249.490463 302.048767,249.986420 
	C302.048767,249.986435 302.000885,250.004349 302.116608,250.164398 
	C302.392303,250.558807 302.577515,250.771149 302.787964,250.961441 
	C302.854767,251.397186 302.921600,251.832947 302.857666,252.847809 
	C301.464386,256.055145 300.166809,258.667389 298.959473,261.320709 
	C298.566986,262.183228 298.410431,263.153046 298.145996,264.073792 
	C298.145996,264.073792 298.096497,264.141754 297.723450,264.087585 
	C296.897827,264.030365 296.445221,264.027283 295.750183,263.990387 
	C295.507751,263.956573 295.022827,263.888763 295.022827,263.888763 
	C295.160980,257.332397 290.212311,253.907455 286.431305,249.692902 
	C282.423035,245.225006 278.523193,240.640381 274.867462,235.882782 
	C272.584076,232.911194 271.247864,229.151260 268.746979,226.423141 
	C265.820435,223.230606 269.022705,221.804672 269.927765,219.322906 
z"/>
<path fill="#5425A8" opacity="1.000000" stroke="none" 
	d="
M283.080017,379.053131 
	C281.766449,375.244293 280.161835,371.500183 279.292755,367.592499 
	C278.976532,366.170624 280.413544,364.358856 281.050659,362.724976 
	C281.753662,362.620697 282.456665,362.516449 283.159668,362.412170 
	C285.653778,368.093719 288.147858,373.775269 290.909271,380.065796 
	C292.372711,375.669769 293.315796,371.732788 295.020111,368.158783 
	C295.943970,366.221466 298.164948,364.902710 299.800781,363.304932 
	C301.210846,364.952637 303.129761,366.389374 303.919312,368.294220 
	C305.328156,371.693329 306.055023,375.375092 307.067078,378.938690 
	C307.556427,378.979919 308.045776,379.021179 308.535126,379.062408 
	C309.720612,375.365692 310.587067,371.518311 312.230957,368.038116 
	C313.010956,366.386749 315.350616,364.299408 316.851166,364.399323 
	C320.222992,364.623932 319.335327,367.807709 318.761932,369.816254 
	C317.455688,374.392120 315.707520,378.841797 313.673218,383.792511 
	C310.634552,386.403717 309.634521,390.772461 305.023682,390.074402 
	C305.023682,390.074402 304.923615,390.077271 304.898071,389.771088 
	C304.656586,389.005005 304.440643,388.545105 304.224731,388.085205 
	C304.183197,387.910553 304.141693,387.735931 303.949005,387.044983 
	C303.554443,386.048096 303.311096,385.567505 303.067749,385.086945 
	C303.051819,384.624359 303.035889,384.161743 303.134949,383.180084 
	C302.915192,382.112701 302.580475,381.564423 302.245728,381.016113 
	C302.204498,380.848877 302.163239,380.681610 301.996796,380.002563 
	C301.637299,379.008606 301.402985,378.526459 301.168671,378.044281 
	C300.720581,377.392822 300.272522,376.741364 299.422455,375.505463 
	C298.180847,378.999054 297.071381,382.120819 295.540894,385.698120 
	C292.755463,388.064758 290.759247,391.006287 287.013153,389.049927 
	C287.013153,389.049927 286.947388,389.051025 286.959930,388.670288 
	C286.367798,387.203979 285.763153,386.118408 285.158478,385.032867 
	C285.126617,384.867645 285.094757,384.702454 284.998199,383.917847 
	C284.315674,381.883301 283.697845,380.468201 283.080017,379.053131 
z"/>
<path fill="#31186A" opacity="1.000000" stroke="none" 
	d="
M239.013565,214.987549 
	C243.260147,217.013062 246.521469,215.268723 249.714813,212.531799 
	C249.016190,219.815369 241.456192,216.514755 237.907883,220.269180 
	C241.432770,223.932159 246.003021,227.095062 242.959351,232.988312 
	C241.862991,234.111649 240.766617,235.235001 238.869690,237.178574 
	C236.019089,233.002884 233.544846,228.931778 230.568588,225.268509 
	C229.568924,224.038071 227.291687,223.845612 225.173706,223.256805 
	C224.749008,223.334869 224.747681,223.255753 224.771667,222.856445 
	C223.152283,220.333588 221.508896,218.210037 219.865524,216.086472 
	C216.563095,208.608719 218.183380,201.000839 219.280884,193.411209 
	C219.562759,191.462021 219.762115,189.477310 220.298752,187.594254 
	C221.039810,184.993851 222.255020,183.166687 224.850540,186.699142 
	C224.965515,187.045990 224.884171,187.150940 224.611328,187.205124 
	C224.352737,189.041962 225.047089,191.241562 224.256638,192.530884 
	C221.642822,196.794235 225.078339,198.357971 227.167725,200.754807 
	C228.635605,202.438675 230.900772,204.650024 230.687576,206.361465 
	C229.843842,213.134842 234.420959,213.902985 239.013565,214.987549 
z"/>
<path fill="#31186A" opacity="1.000000" stroke="none" 
	d="
M294.710724,264.065948 
	C295.022827,263.888763 295.507751,263.956573 295.745300,264.306335 
	C295.988556,265.077972 295.994263,265.499817 295.999969,265.921692 
	C291.274750,267.958038 286.549500,269.994385 281.283508,271.930237 
	C280.159698,271.889435 279.576660,271.949127 278.993591,272.008850 
	C278.993591,272.008850 278.505280,271.983582 278.261108,271.994934 
	C270.803497,272.720947 269.576019,266.320526 267.314301,262.097321 
	C264.562592,256.959198 261.550720,252.761658 256.281738,249.970230 
	C252.467255,247.949402 250.434906,244.314011 250.556732,239.703308 
	C250.608490,237.745239 250.236832,235.775970 250.436905,233.395340 
	C251.067734,232.963165 251.319260,232.947449 251.705139,232.764191 
	C251.839523,232.596634 252.245575,232.456909 252.245575,232.456909 
	C252.245575,232.456909 252.670013,232.521835 252.841232,232.871506 
	C254.324448,233.815765 255.636429,234.410370 256.977905,235.003174 
	C257.007416,235.001404 256.993652,235.059387 256.993652,235.059387 
	C256.905060,236.807739 256.816498,238.556076 256.772369,239.426941 
	C259.656769,240.375320 261.991425,241.142960 264.736664,242.279312 
	C267.766235,245.601715 270.633331,248.375092 272.943665,251.553146 
	C276.082001,255.870163 282.572784,257.352661 283.184937,263.992340 
	C283.262390,264.832550 286.977509,265.337341 289.007294,265.997528 
	C290.804413,265.412720 292.601501,264.827942 294.710724,264.065948 
z"/>
<path fill="#4F1FA3" opacity="1.000000" stroke="none" 
	d="
M214.799652,115.526215 
	C214.379211,117.015976 213.712219,118.169739 213.092499,120.008835 
	C218.840775,126.515373 224.409409,132.474899 230.293198,138.105087 
	C233.736588,141.400101 238.165665,143.928513 236.074982,149.836288 
	C232.134567,149.388428 227.241547,152.152222 224.843323,146.504913 
	C218.728607,147.538727 219.431564,142.480927 218.007965,139.128510 
	C217.606964,138.184189 215.860352,137.811264 214.200226,136.928741 
	C213.442947,136.433487 213.175339,136.243561 212.866699,136.111465 
	C212.866699,136.111465 212.455597,135.990158 212.225403,135.670944 
	C211.728989,134.619980 211.276062,133.234146 211.223083,133.249283 
	C205.423401,134.904968 203.374588,130.150177 200.687042,126.901253 
	C195.990860,121.224167 196.514023,120.084068 203.734497,117.758110 
	C204.752792,117.430084 207.893311,118.089844 205.997238,115.038872 
	C208.849197,115.089317 211.701141,115.139771 214.799652,115.526215 
z"/>
<path fill="#23184C" opacity="1.000000" stroke="none" 
	d="
M197.094299,390.081696 
	C196.603973,393.456818 193.994354,392.980743 191.715729,392.981232 
	C188.943787,392.981812 186.143784,392.588104 183.405365,392.860992 
	C176.495087,393.549774 172.343628,390.068146 172.037155,383.180969 
	C171.831131,378.551147 171.405090,373.931122 171.074478,369.306915 
	C170.881012,366.601013 171.040680,364.273590 174.715317,364.180023 
	C178.066574,364.094788 179.070709,365.810730 179.012390,368.811035 
	C178.947800,372.133118 178.492554,375.586090 179.237610,378.738617 
	C179.768356,380.984283 182.002380,382.827393 183.476288,384.850189 
	C185.283249,383.247559 188.054977,381.952423 188.685226,379.974762 
	C189.805923,376.458221 189.721420,372.534424 189.971970,368.769714 
	C190.270447,364.284973 192.037994,363.058929 196.892609,365.054108 
	C197.058884,373.896179 197.076599,381.988922 197.094299,390.081696 
z"/>
<path fill="#421D8C" opacity="1.000000" stroke="none" 
	d="
M358.079224,281.956573 
	C358.661194,282.429626 359.243195,282.902679 359.998352,283.992981 
	C359.779358,287.740540 359.387238,290.870880 358.632385,293.975861 
	C353.374512,291.364075 348.479370,288.777618 343.548340,286.172211 
	C342.848206,286.677582 341.939514,287.333557 341.017273,287.989380 
	C341.003784,287.989227 341.010620,287.969360 340.986969,287.686584 
	C340.701447,286.898468 340.439575,286.393158 340.177734,285.887878 
	C339.785950,286.246979 339.394135,286.606079 338.762512,286.984131 
	C338.522675,287.003082 338.042236,287.028717 337.612915,287.021545 
	C333.924591,286.104401 330.480103,285.596130 327.447723,284.195526 
	C322.158905,281.752655 317.123901,278.760254 311.985748,275.749207 
	C311.988983,275.500183 311.995117,275.002136 312.172058,274.740234 
	C314.256165,272.792603 315.515503,271.046387 312.866821,268.935120 
	C312.896454,268.520905 312.926086,268.106659 313.191681,267.364563 
	C313.632904,267.021301 313.838226,267.005920 314.461151,266.992310 
	C317.474060,268.035797 320.668060,268.444580 322.557861,270.232147 
	C329.603210,276.896515 337.297699,281.281952 347.399963,280.454590 
	C348.519714,280.362854 349.761902,282.257935 351.014069,283.136444 
	C352.016144,283.839478 353.119659,284.397949 354.178131,285.020599 
	C354.567535,283.727417 355.248108,282.435822 355.255310,281.140503 
	C355.261200,280.080688 354.464325,279.016388 354.023315,277.954071 
	C354.988770,278.717407 355.954224,279.480743 357.119873,280.781128 
	C357.530426,281.581787 357.783478,281.794556 358.079224,281.956573 
z"/>
<path fill="#481F99" opacity="1.000000" stroke="none" 
	d="
M292.956238,221.597305 
	C293.305298,226.054108 293.643951,230.093872 293.695312,234.695221 
	C292.609589,235.502716 291.811157,235.748642 291.012726,235.994568 
	C291.012726,235.994568 291.002563,235.998703 291.003723,235.993744 
	C289.923920,233.703842 289.090057,231.255112 287.707764,229.169922 
	C285.240387,225.447922 282.757721,221.644547 279.697235,218.431732 
	C276.321136,214.887527 272.287781,211.969406 268.572693,208.805801 
	C269.187531,208.263000 270.549133,207.060913 271.963379,205.516891 
	C272.015991,205.174957 272.498260,205.054245 273.007935,205.215652 
	C275.597809,206.003250 277.971405,207.074677 277.005493,203.078552 
	C280.340942,201.468307 283.676392,199.858063 287.985077,197.777985 
	C289.686432,205.804047 291.316132,213.492157 292.956238,221.597305 
z"/>
<path fill="#241D44" opacity="1.000000" stroke="none" 
	d="
M206.019318,359.827667 
	C205.945526,356.381958 207.995712,355.460846 210.267166,356.169556 
	C211.732681,356.626770 213.577728,358.380005 213.797379,359.780670 
	C214.219330,362.471558 214.752670,364.019531 217.875793,364.203644 
	C218.986954,364.269073 221.016464,366.306641 220.842804,366.991882 
	C220.472366,368.453705 219.038757,370.598419 217.857391,370.722870 
	C214.384933,371.088745 213.608688,372.973785 214.048828,375.774811 
	C214.578873,379.147949 212.120148,383.765381 217.970795,385.141449 
	C219.096130,385.406158 220.652924,387.506378 220.516281,388.567352 
	C220.332245,389.996307 218.961487,391.948364 217.641510,392.436829 
	C212.253067,394.430756 205.976669,389.713623 206.017761,384.046051 
	C206.039474,381.050446 206.278564,378.019684 205.895370,375.072968 
	C205.695526,373.536194 204.698318,371.685547 203.469147,370.783844 
	C200.577927,368.662872 200.301331,366.313812 203.031433,363.788177 
	C204.154800,362.748932 205.014496,361.424683 206.019318,359.827667 
z"/>
<path fill="#241D44" opacity="1.000000" stroke="none" 
	d="
M166.152267,385.909607 
	C168.005356,390.049683 166.493973,392.212402 162.508820,392.791138 
	C157.651230,393.496552 153.392441,390.626984 153.104874,386.237000 
	C152.855255,382.426727 153.046463,378.588013 153.030579,374.761902 
	C153.021210,372.506134 153.075653,370.399323 149.674911,370.570312 
	C148.753693,370.616638 146.946884,368.935913 146.964951,368.077728 
	C146.992508,366.767700 147.997452,364.674347 149.040649,364.343781 
	C151.898926,363.437988 152.820618,361.850403 153.283432,359.003204 
	C153.497803,357.684509 155.727554,356.066040 157.247772,355.813782 
	C158.215973,355.653137 160.424515,357.646912 160.568832,358.854858 
	C160.976715,362.268707 161.746796,364.561493 165.844620,364.419952 
	C166.479324,364.398041 167.740494,366.349152 167.693848,367.339905 
	C167.647781,368.317871 166.442474,369.402740 165.507996,370.138885 
	C164.167984,371.194458 161.729614,371.691071 161.328491,372.932892 
	C160.435699,375.696747 159.780014,378.962982 160.468124,381.656433 
	C160.899719,383.345886 163.946411,384.367249 166.152267,385.909607 
z"/>
<path fill="#271854" opacity="1.000000" stroke="none" 
	d="
M253.027756,372.942261 
	C255.814178,379.179047 254.150345,384.399994 249.512802,389.061554 
	C244.804352,393.794434 239.106522,393.517944 233.476822,391.931549 
	C228.847351,390.627014 224.352615,388.545074 224.071167,382.568970 
	C223.743240,375.606506 223.909882,368.847870 231.559143,365.325317 
	C230.475998,367.785736 229.047241,369.907684 227.449097,372.281250 
	C230.326111,372.281250 232.720169,372.281250 234.898438,372.548798 
	C230.932968,375.936768 231.465256,379.726685 233.939270,382.960663 
	C236.198975,385.914459 239.661987,385.102509 242.527451,383.484497 
	C243.875748,382.723145 244.771988,381.161194 246.104538,380.218597 
	C247.462982,381.517944 248.589951,382.560699 249.716919,383.603455 
	C250.565994,382.329315 251.798965,381.158417 252.175644,379.757263 
	C252.764313,377.567505 252.773224,375.221863 253.027756,372.942261 
z"/>
<path fill="#481F99" opacity="1.000000" stroke="none" 
	d="
M353.862854,277.652344 
	C354.464325,279.016388 355.261200,280.080688 355.255310,281.140503 
	C355.248108,282.435822 354.567535,283.727417 354.178131,285.020599 
	C353.119659,284.397949 352.016144,283.839478 351.014069,283.136444 
	C349.761902,282.257935 348.519714,280.362854 347.399963,280.454590 
	C337.297699,281.281952 329.603210,276.896515 322.557861,270.232147 
	C320.668060,268.444580 317.474060,268.035797 314.471344,266.645264 
	C314.388245,264.955719 314.712585,263.614990 315.036926,262.274231 
	C315.480988,262.200134 315.925018,262.126038 316.868469,262.219238 
	C317.591705,262.590729 317.842773,262.752747 318.121033,262.872620 
	C318.121033,262.872620 318.551300,263.060242 318.878815,263.422546 
	C320.474640,263.920746 321.742981,264.056671 323.011292,264.192627 
	C334.091736,266.595825 344.908447,269.614197 353.862854,277.652344 
z"/>
<path fill="#2D1960" opacity="1.000000" stroke="none" 
	d="
M300.020447,308.027893 
	C295.266388,303.835663 290.906036,299.025146 285.624023,295.662170 
	C281.919434,293.303497 280.165436,291.701813 282.924652,287.419250 
	C286.461639,285.823425 289.910583,284.560547 293.793579,283.454468 
	C293.974518,284.654297 293.489716,285.705048 293.523987,286.738556 
	C293.572174,288.192993 293.493195,290.305359 294.360840,290.967957 
	C298.570984,294.183044 303.129608,296.936340 307.465149,299.994476 
	C310.735779,302.301422 313.850464,302.607483 317.434082,299.960876 
	C318.931396,300.053528 320.019714,300.132843 320.860962,300.456299 
	C313.749420,303.142883 306.884918,305.585388 300.020447,308.027893 
z"/>
<path fill="#421D8C" opacity="1.000000" stroke="none" 
	d="
M205.624573,115.050629 
	C207.893311,118.089844 204.752792,117.430084 203.734497,117.758110 
	C196.514023,120.084068 195.990860,121.224167 200.687042,126.901253 
	C203.374588,130.150177 205.423401,134.904968 211.223083,133.249283 
	C211.276062,133.234146 211.728989,134.619980 212.011475,135.658051 
	C209.319290,138.316254 206.610825,140.668167 203.220886,143.047150 
	C202.338120,143.085190 202.136856,143.096176 201.935577,143.107147 
	C201.935577,143.107147 201.924530,143.056137 201.646973,142.853790 
	C199.612686,141.910812 197.138168,141.664215 196.227631,140.341202 
	C192.877487,135.473419 189.552017,130.432205 190.013702,124.046074 
	C190.013702,124.046074 189.993118,123.999489 190.360840,123.966911 
	C191.485886,122.960365 192.243240,121.986389 193.000580,121.012421 
	C197.084366,119.029076 201.168137,117.045731 205.624573,115.050629 
z"/>
<path fill="#351A76" opacity="1.000000" stroke="none" 
	d="
M321.108002,300.212158 
	C320.019714,300.132843 318.931396,300.053528 317.307281,299.625977 
	C315.552551,296.847046 314.830902,292.839325 313.025055,292.269958 
	C306.633331,290.254547 304.022949,285.915527 302.964600,279.941406 
	C305.434692,277.711426 307.904785,275.481476 310.738403,273.377075 
	C311.399658,274.002441 311.697388,274.502289 311.995117,275.002136 
	C311.995117,275.002136 311.988983,275.500183 311.721100,275.937439 
	C311.720276,277.789612 311.499847,279.672852 312.334930,280.541962 
	C317.088013,285.488678 322.092926,290.193451 326.830933,295.212219 
	C326.503967,296.005310 326.358337,296.566620 326.170502,297.169678 
	C326.128296,297.211395 326.040375,297.131683 325.761139,297.179779 
	C325.002655,297.514069 324.523407,297.800262 324.054169,298.065155 
	C324.064178,298.043854 324.060760,298.097992 323.724976,298.103210 
	C322.643585,298.774200 321.897980,299.439911 321.161804,300.140808 
	C321.171234,300.175964 321.108002,300.212128 321.108002,300.212158 
z"/>
<path fill="#31186A" opacity="1.000000" stroke="none" 
	d="
M302.593781,279.963623 
	C304.022949,285.915527 306.633331,290.254547 313.025055,292.269958 
	C314.830902,292.839325 315.552551,296.847046 316.898254,299.612640 
	C313.850464,302.607483 310.735779,302.301422 307.465149,299.994476 
	C303.129608,296.936340 298.570984,294.183044 294.360840,290.967957 
	C293.493195,290.305359 293.572174,288.192993 293.523987,286.738556 
	C293.489716,285.705048 293.974518,284.654297 294.123657,283.314545 
	C296.754120,282.007172 299.488556,280.996521 302.593781,279.963623 
z"/>
<path fill="#481F99" opacity="1.000000" stroke="none" 
	d="
M353.750275,374.546783 
	C352.356018,376.343170 350.943451,378.125732 349.572693,379.939880 
	C348.242554,381.700256 346.955353,383.493073 345.118958,385.993866 
	C349.216705,385.993866 352.417572,385.580200 355.427155,386.159729 
	C357.052582,386.472748 358.351074,388.483521 359.797058,389.728363 
	C358.361237,390.476807 356.955322,391.793427 355.484192,391.870880 
	C350.345520,392.141327 345.180573,392.108551 340.032715,391.953796 
	C334.780731,391.795868 333.812439,390.037933 336.838623,385.574097 
	C340.298584,380.470398 344.210876,375.673370 348.173584,370.537842 
	C348.910767,371.625458 349.400970,372.918365 349.924652,374.299438 
	C351.174744,374.380249 352.462494,374.463531 353.750275,374.546783 
z"/>
<path fill="#271854" opacity="1.000000" stroke="none" 
	d="
M264.886353,364.045471 
	C265.788330,364.751587 266.690308,365.457733 267.090485,365.770996 
	C270.332275,364.907013 273.206512,364.140991 276.082336,363.374512 
	C277.929749,370.567230 277.745728,370.909241 271.752808,372.901825 
	C266.584656,374.620178 266.930023,378.976837 266.562012,383.712097 
	C265.162811,385.978912 264.096619,387.676117 262.246155,390.621826 
	C258.615662,380.994812 260.066040,372.629883 261.045166,364.292816 
	C261.810150,364.224609 262.575134,364.156372 263.918152,364.065674 
	C264.496155,364.043213 264.886353,364.045471 264.886353,364.045471 
z"/>
<path fill="#2D1960" opacity="1.000000" stroke="none" 
	d="
M335.414062,313.061554 
	C333.207733,313.125336 331.320862,312.940552 329.527313,313.267609 
	C326.844818,313.756775 324.227997,314.605957 322.173492,315.146667 
	C321.486633,312.820770 321.151703,309.955933 320.526337,309.891022 
	C318.592224,309.690369 316.547485,310.556396 313.174164,311.317841 
	C314.942291,309.117249 315.868988,307.963867 317.204285,306.297546 
	C324.074585,301.852600 330.536346,297.920532 336.983429,294.318146 
	C336.318634,297.943298 335.551636,301.220856 335.044128,304.538147 
	C334.151276,310.374115 339.139771,309.023438 342.090393,310.146698 
	C339.985352,311.111816 337.880341,312.076935 335.414062,313.061554 
z"/>
<path fill="#2D1960" opacity="1.000000" stroke="none" 
	d="
M253.021484,372.581543 
	C252.773224,375.221863 252.764313,377.567505 252.175644,379.757263 
	C251.798965,381.158417 250.565994,382.329315 249.716919,383.603455 
	C248.589951,382.560699 247.462982,381.517944 246.168564,379.858948 
	C245.646622,377.869995 245.292130,376.497284 244.777084,374.923615 
	C244.332794,374.533630 244.049042,374.344543 243.487885,373.968231 
	C240.977829,370.764893 238.061798,371.437927 235.114243,372.281250 
	C232.720169,372.281250 230.326111,372.281250 227.449097,372.281250 
	C229.047241,369.907684 230.475998,367.785736 231.908936,365.298462 
	C231.913147,364.933167 231.943405,364.942169 232.152420,364.813538 
	C232.607407,364.473999 232.832397,364.242737 233.036438,363.991089 
	C235.941711,363.852448 238.877991,363.380341 241.745605,363.646881 
	C247.158356,364.149994 251.024033,367.042114 253.021484,372.581543 
z"/>
<path fill="#351A76" opacity="1.000000" stroke="none" 
	d="
M342.448273,310.106995 
	C339.139771,309.023438 334.151276,310.374115 335.044128,304.538147 
	C335.551636,301.220856 336.318634,297.943298 337.091736,294.106628 
	C337.404449,293.300110 337.649628,293.104156 338.268982,292.930359 
	C339.392670,292.588715 340.197540,292.294373 341.317688,292.072144 
	C342.462738,294.571960 343.292542,296.999573 344.121277,299.423981 
	C348.997375,298.155243 354.733582,302.194153 358.885742,296.895813 
	C358.945648,296.949097 359.065613,297.055420 359.065613,297.055420 
	C355.840912,304.135712 348.790375,306.435242 342.448273,310.106995 
z"/>
<path fill="#3D1C85" opacity="1.000000" stroke="none" 
	d="
M189.720459,124.187683 
	C189.552017,130.432205 192.877487,135.473419 196.227631,140.341202 
	C197.138168,141.664215 199.612686,141.910812 201.670944,142.864090 
	C198.191086,144.588470 194.409683,146.100189 190.006699,147.815842 
	C188.925034,148.013489 188.464951,148.007202 187.855469,147.691956 
	C181.321304,142.665527 180.623871,136.728012 183.960999,129.925003 
	C185.783066,128.059769 187.605148,126.194519 189.720459,124.187683 
z"/>
<path fill="#351A76" opacity="1.000000" stroke="none" 
	d="
M183.651367,130.082993 
	C180.623871,136.728012 181.321304,142.665527 187.855164,148.027542 
	C188.008423,149.119705 188.012604,149.567322 188.016785,150.014938 
	C188.016785,150.014938 188.000000,150.000000 187.819626,150.151978 
	C187.403427,150.520294 187.206146,150.767395 187.047394,151.045273 
	C187.047394,151.045273 187.114685,151.051361 186.765717,151.138336 
	C178.080627,153.709335 181.919800,162.204376 178.920959,167.471466 
	C177.377563,166.096512 176.199356,165.046906 175.021149,163.997299 
	C175.063934,159.977188 175.106720,155.957062 175.479279,151.397461 
	C175.856796,149.900757 175.904556,148.943558 175.952301,147.986343 
	C176.004089,147.231552 176.055862,146.476761 176.280762,145.182556 
	C176.654160,144.417175 176.815323,144.166122 176.937378,143.889954 
	C176.983704,143.465317 177.030029,143.040665 177.256561,142.126297 
	C177.641403,141.400024 177.807434,141.138962 177.934875,140.853378 
	C179.737152,137.315918 181.539429,133.778442 183.651367,130.082993 
z"/>
<path fill="#5720B0" opacity="1.000000" stroke="none" 
	d="
M353.806396,374.525238 
	C352.462494,374.463531 351.174744,374.380249 349.924652,374.299438 
	C349.400970,372.918365 348.910767,371.625458 348.165649,370.185028 
	C345.121765,370.006195 342.331268,370.020599 339.544098,369.932190 
	C335.888672,369.816254 334.196472,368.152100 335.330536,364.139618 
	C338.289612,364.139618 341.211456,364.139618 344.908997,364.353668 
	C347.778900,364.450317 349.873077,364.332947 351.967285,364.215546 
	C352.423676,364.183533 352.880096,364.151550 353.786285,364.251373 
	C354.236084,364.383179 354.637085,364.416321 354.637085,364.416321 
	C354.637085,364.416321 354.990509,364.219421 354.990509,364.219421 
	C355.154022,364.176819 355.317535,364.134216 355.994385,364.036682 
	C356.684113,363.965851 356.860443,363.949921 357.036743,363.934021 
	C357.036743,363.934021 357.062744,363.944122 357.055054,364.410645 
	C357.273773,366.379974 357.500244,367.882751 357.726685,369.385529 
	C357.726685,369.385529 357.643188,369.637482 357.266418,369.560425 
	C356.636108,370.006500 356.382568,370.529633 356.129059,371.052795 
	C355.979584,371.654663 355.830109,372.256500 355.174561,372.942596 
	C354.392120,373.479797 354.115753,373.932770 353.839355,374.385742 
	C353.839355,374.385742 353.862518,374.503693 353.806396,374.525238 
z"/>
<path fill="#31186A" opacity="1.000000" stroke="none" 
	d="
M174.980225,164.378448 
	C176.199356,165.046906 177.377563,166.096512 178.920959,167.471466 
	C181.919800,162.204376 178.080627,153.709335 186.762131,151.171936 
	C182.363724,159.361877 182.036652,168.185257 184.006165,178.954895 
	C181.882492,177.634964 180.163391,177.182281 179.655014,176.139404 
	C177.859116,172.455338 176.477798,168.569168 174.980225,164.378448 
z"/>
<path fill="#5720B0" opacity="1.000000" stroke="none" 
	d="
M325.974579,364.253571 
	C326.435822,364.215515 326.897064,364.177490 327.854034,364.283112 
	C328.558868,364.608490 328.787659,364.760590 329.036194,364.883026 
	C329.036194,364.883026 329.156219,364.887238 329.120544,365.411194 
	C329.038879,372.227570 329.087677,378.523041 328.882751,384.810272 
	C328.829071,386.456940 327.987427,388.077881 327.507690,389.710632 
	C326.750183,389.608978 325.992676,389.507294 325.235138,389.405640 
	C325.343048,381.024292 324.055603,372.670074 325.974579,364.253571 
z"/>
<path fill="#481F99" opacity="1.000000" stroke="none" 
	d="
M325.687012,364.184570 
	C324.055603,372.670074 325.343048,381.024292 325.235138,389.405640 
	C325.992676,389.507294 326.750183,389.608978 327.507690,389.710632 
	C327.987427,388.077881 328.829071,386.456940 328.882751,384.810272 
	C329.087677,378.523041 329.038879,372.227570 329.130127,365.470459 
	C329.786194,366.631104 330.873230,368.242188 330.922241,369.884308 
	C331.100433,375.853882 331.106934,381.841766 330.836212,387.807281 
	C330.627167,392.413391 328.649872,393.190704 324.030762,390.014221 
	C324.019318,381.074158 324.016052,373.015167 324.012756,364.956177 
	C324.475006,364.675964 324.937225,364.395752 325.687012,364.184570 
z"/>
<path fill="#241D44" opacity="1.000000" stroke="none" 
	d="
M260.740448,364.241272 
	C260.066040,372.629883 258.615662,380.994812 262.246155,390.621826 
	C264.096619,387.676117 265.162811,385.978912 266.514893,384.142883 
	C266.811554,385.805237 267.217255,387.728821 266.709198,389.369354 
	C266.295410,390.705505 264.878052,392.523254 263.743011,392.648071 
	C262.239471,392.813385 260.577484,391.537659 259.007141,390.020386 
	C259.021423,381.119385 259.012177,373.079193 259.002930,365.039032 
	C259.480530,364.755920 259.958130,364.472809 260.740448,364.241272 
z"/>
<path fill="#5425A8" opacity="1.000000" stroke="none" 
	d="
M329.032654,353.604248 
	C329.931122,355.392303 331.493561,357.417908 331.000092,358.324707 
	C330.149170,359.888275 328.019623,360.756012 326.426605,361.915741 
	C325.429504,359.826355 323.630157,357.741150 323.619171,355.646576 
	C323.601715,352.323090 326.445374,352.843323 329.032654,353.604248 
z"/>
<path fill="#3D1F7D" opacity="1.000000" stroke="none" 
	d="
M298.497772,264.090240 
	C298.410431,263.153046 298.566986,262.183228 298.959473,261.320709 
	C300.166809,258.667389 301.464386,256.055145 302.932129,253.170074 
	C304.012451,254.781693 304.887573,256.650177 305.967346,258.955627 
	C303.523834,260.723969 301.186707,262.415344 298.497772,264.090240 
z"/>
<path fill="#481F99" opacity="1.000000" stroke="none" 
	d="
M305.056580,390.421661 
	C309.634521,390.772461 310.634552,386.403717 313.519287,384.133606 
	C313.189819,386.029175 312.843597,388.197205 311.841949,390.001404 
	C310.100677,393.137909 307.750214,394.143951 305.056580,390.421661 
z"/>
<path fill="#D4D1E2" opacity="1.000000" stroke="none" 
	d="
M323.597290,365.118896 
	C324.016052,373.015167 324.019318,381.074158 324.022583,389.606934 
	C323.671234,388.280792 323.036072,386.483398 323.019592,384.680389 
	C322.960449,378.215179 323.110718,371.748047 323.597290,365.118896 
z"/>
<path fill="#D4D1E2" opacity="1.000000" stroke="none" 
	d="
M258.594055,365.200592 
	C259.012177,373.079193 259.021423,381.119385 259.029358,389.635162 
	C258.681152,388.314667 258.054962,386.521210 258.037628,384.721924 
	C257.975464,378.269745 258.119293,371.815582 258.594055,365.200592 
z"/>
<path fill="#3D1F7D" opacity="1.000000" stroke="none" 
	d="
M197.436752,389.819611 
	C197.076599,381.988922 197.058884,373.896179 197.085983,365.327087 
	C197.346924,373.086334 197.563065,381.321930 197.436752,389.819611 
z"/>
<path fill="#351A76" opacity="1.000000" stroke="none" 
	d="
M358.995117,294.001221 
	C359.387238,290.870880 359.779358,287.740540 360.182434,284.207825 
	C362.990662,288.210388 363.035400,292.508820 359.380493,296.865845 
	C359.065613,297.055420 358.945648,296.949097 358.931641,296.544312 
	C358.943451,295.426727 358.969269,294.713989 358.995117,294.001221 
z"/>
<path fill="#481F99" opacity="1.000000" stroke="none" 
	d="
M287.037354,389.387604 
	C290.759247,391.006287 292.755463,388.064758 295.437866,386.064209 
	C295.223724,387.176758 294.765625,388.418427 294.145844,389.573364 
	C292.128021,393.333466 289.816925,393.367889 287.037354,389.387604 
z"/>
<path fill="#2D1960" opacity="1.000000" stroke="none" 
	d="
M219.925644,216.441467 
	C221.508896,218.210037 223.152283,220.333588 224.802475,222.831619 
	C223.201447,221.069534 221.593597,218.932999 219.925644,216.441467 
z"/>
<path fill="#3D1C85" opacity="1.000000" stroke="none" 
	d="
M314.715637,262.190399 
	C314.712585,263.614990 314.388245,264.955719 314.053711,266.643494 
	C313.838226,267.005920 313.632904,267.021301 313.120026,267.060120 
	C312.334839,265.523560 311.857239,263.963654 311.379639,262.403717 
	C312.384521,262.304657 313.389435,262.205627 314.715637,262.190399 
z"/>
<path fill="#3D1C85" opacity="1.000000" stroke="none" 
	d="
M312.172058,274.740234 
	C311.697388,274.502289 311.399658,274.002441 311.032349,273.216370 
	C311.410309,271.715790 311.857819,270.501465 312.586090,269.111115 
	C315.515503,271.046387 314.256165,272.792603 312.172058,274.740234 
z"/>
<path fill="#4F1FA3" opacity="1.000000" stroke="none" 
	d="
M228.848053,118.611244 
	C226.781448,118.229614 224.536713,117.542107 222.152832,116.568420 
	C224.232422,116.956619 226.451172,117.630989 228.848053,118.611244 
z"/>
<path fill="#1E1841" opacity="1.000000" stroke="none" 
	d="
M155.778519,274.350525 
	C156.084488,274.242157 156.071304,274.604584 156.074707,274.785461 
	C154.311859,276.293915 152.545624,277.621460 150.437622,278.997528 
	C151.888077,277.516998 153.680313,275.987946 155.778519,274.350525 
z"/>
<path fill="#421D8C" opacity="1.000000" stroke="none" 
	d="
M276.692688,203.178787 
	C277.971405,207.074677 275.597809,206.003250 273.253265,205.175446 
	C274.119232,204.408890 275.249542,203.843948 276.692688,203.178787 
z"/>
<path fill="#481F99" opacity="1.000000" stroke="none" 
	d="
M357.977020,369.247223 
	C357.500244,367.882751 357.273773,366.379974 357.063568,364.421661 
	C359.471588,365.232056 360.343811,366.837036 357.977020,369.247223 
z"/>
<path fill="#421D8C" opacity="1.000000" stroke="none" 
	d="
M322.700134,264.002289 
	C321.742981,264.056671 320.474640,263.920746 319.096985,263.509094 
	C320.121429,263.426239 321.255188,263.619110 322.700134,264.002289 
z"/>
<path fill="#31186A" opacity="1.000000" stroke="none" 
	d="
M175.687805,148.193069 
	C175.904556,148.943558 175.856796,149.900757 175.532883,150.938477 
	C175.312256,150.145935 175.367783,149.272858 175.687805,148.193069 
z"/>
<path fill="#31186A" opacity="1.000000" stroke="none" 
	d="
M225.944427,183.386597 
	C227.430878,183.401215 230.115204,183.017212 227.239838,185.850220 
	C226.610626,185.194382 226.278107,184.446442 225.944427,183.386597 
z"/>
<path fill="#3D1C85" opacity="1.000000" stroke="none" 
	d="
M192.651825,120.944260 
	C192.243240,121.986389 191.485886,122.960365 190.385742,123.972214 
	C190.796295,122.965439 191.549683,121.920776 192.651825,120.944260 
z"/>
<path fill="#481F99" opacity="1.000000" stroke="none" 
	d="
M283.010559,379.403778 
	C283.697845,380.468201 284.315674,381.883301 284.919189,383.678162 
	C284.250275,382.623444 283.595673,381.188934 283.010559,379.403778 
z"/>
<path fill="#481F99" opacity="1.000000" stroke="none" 
	d="
M351.539978,364.137848 
	C349.873077,364.332947 347.778900,364.450317 345.367889,364.402100 
	C347.071625,364.177673 349.092163,364.118896 351.539978,364.137848 
z"/>
<path fill="#481F99" opacity="1.000000" stroke="none" 
	d="
M285.080994,385.360229 
	C285.763153,386.118408 286.367798,387.203979 286.960052,388.637390 
	C286.299591,387.886047 285.651550,386.786804 285.080994,385.360229 
z"/>
<path fill="#271854" opacity="1.000000" stroke="none" 
	d="
M262.238342,276.204590 
	C262.946991,276.084015 263.876984,276.204987 264.910217,276.591553 
	C264.162170,276.720154 263.310944,276.583160 262.238342,276.204590 
z"/>
<path fill="#31186A" opacity="1.000000" stroke="none" 
	d="
M226.701630,186.073929 
	C226.959091,186.420151 226.969711,186.876877 226.787308,187.807159 
	C226.024246,187.904144 225.454208,187.527542 224.884171,187.150940 
	C224.884171,187.150940 224.965515,187.045990 225.006546,186.993042 
	C225.516647,186.688202 225.985718,186.436310 226.701630,186.073929 
z"/>
<path fill="#201647" opacity="1.000000" stroke="none" 
	d="
M313.296173,319.965210 
	C313.540253,319.585968 314.070953,319.158905 314.801880,318.868958 
	C314.529022,319.309845 314.055908,319.613617 313.296173,319.965210 
z"/>
<path fill="#3D1F7D" opacity="1.000000" stroke="none" 
	d="
M212.891281,136.496155 
	C213.175339,136.243561 213.442947,136.433487 213.836853,136.865540 
	C213.845383,137.845062 213.686615,138.640305 213.364471,139.695206 
	C213.106018,138.930206 213.010941,137.905518 212.891281,136.496155 
z"/>
<path fill="#481F99" opacity="1.000000" stroke="none" 
	d="
M302.165955,381.306671 
	C302.580475,381.564423 302.915192,382.112701 303.091125,382.835693 
	C302.650269,382.539307 302.368225,382.068268 302.165955,381.306671 
z"/>
<path fill="#481F99" opacity="1.000000" stroke="none" 
	d="
M356.335175,370.937347 
	C356.382568,370.529633 356.636108,370.006500 357.139832,369.600220 
	C357.107086,370.085358 356.824188,370.453644 356.335175,370.937347 
z"/>
<path fill="#2D1960" opacity="1.000000" stroke="none" 
	d="
M279.139679,272.219421 
	C279.576660,271.949127 280.159698,271.889435 280.918884,272.004456 
	C280.491913,272.262787 279.888824,272.346375 279.139679,272.219421 
z"/>
<path fill="#481F99" opacity="1.000000" stroke="none" 
	d="
M301.016693,378.296906 
	C301.402985,378.526459 301.637299,379.008606 301.913727,379.757874 
	C301.592133,379.533142 301.228424,379.041321 301.016693,378.296906 
z"/>
<path fill="#31186A" opacity="1.000000" stroke="none" 
	d="
M188.290802,149.909515 
	C188.012604,149.567322 188.008423,149.119705 188.004562,148.336502 
	C188.464951,148.007202 188.925034,148.013489 189.730652,148.038300 
	C189.572403,148.639267 189.068588,149.221680 188.290802,149.909515 
z"/>
<path fill="#481F99" opacity="1.000000" stroke="none" 
	d="
M354.045105,374.287170 
	C354.115753,373.932770 354.392120,373.479797 354.902283,373.105682 
	C354.840942,373.519226 354.545868,373.853912 354.045105,374.287170 
z"/>
<path fill="#3D1F7D" opacity="1.000000" stroke="none" 
	d="
M296.289246,265.883118 
	C295.994263,265.499817 295.988556,265.077972 295.987732,264.340149 
	C296.445221,264.027283 296.897827,264.030365 297.688141,264.064789 
	C297.543427,264.678925 297.060974,265.261719 296.289246,265.883118 
z"/>
<path fill="#481F99" opacity="1.000000" stroke="none" 
	d="
M304.146301,388.366333 
	C304.440643,388.545105 304.656586,389.005005 304.894958,389.721130 
	C304.634247,389.534058 304.351044,389.090729 304.146301,388.366333 
z"/>
<path fill="#481F99" opacity="1.000000" stroke="none" 
	d="
M303.000732,385.391113 
	C303.311096,385.567505 303.554443,386.048096 303.845978,386.796204 
	C303.574005,386.607635 303.253876,386.151459 303.000732,385.391113 
z"/>
<path fill="#3D1F7D" opacity="1.000000" stroke="none" 
	d="
M301.998474,249.687744 
	C301.745483,249.490463 301.442169,248.994507 301.085327,248.207733 
	C301.337280,248.407654 301.642731,248.898346 301.998474,249.687744 
z"/>
<path fill="#3D1F7D" opacity="1.000000" stroke="none" 
	d="
M300.967834,246.731247 
	C300.750702,246.759476 300.533997,246.503357 300.196655,246.026245 
	C300.373413,246.019150 300.670868,246.233017 300.967834,246.731247 
z"/>
<path fill="#3D1F7D" opacity="1.000000" stroke="none" 
	d="
M302.770996,250.729202 
	C302.577515,250.771149 302.392303,250.558807 302.126526,250.140839 
	C302.343475,250.030762 302.587891,250.210663 302.770996,250.729202 
z"/>
<path fill="#4F1FA3" opacity="1.000000" stroke="none" 
	d="
M219.867615,115.802727 
	C219.906219,116.014023 219.476807,116.030098 219.262772,116.015427 
	C219.308838,115.864311 219.568939,115.727875 219.867615,115.802727 
z"/>
<path fill="#4F1FA3" opacity="1.000000" stroke="none" 
	d="
M217.739594,116.175255 
	C217.977325,116.237312 217.625610,116.427048 217.625610,116.427048 
	C217.625610,116.427048 217.230576,116.381950 217.125198,116.295303 
	C217.019821,116.208656 217.501846,116.113197 217.739594,116.175255 
z"/>
<path fill="#31186A" opacity="1.000000" stroke="none" 
	d="
M177.707520,140.965820 
	C177.807434,141.138962 177.641403,141.400024 177.278061,141.806442 
	C177.239624,141.676956 177.359894,141.377609 177.707520,140.965820 
z"/>
<path fill="#201647" opacity="1.000000" stroke="none" 
	d="
M316.161621,319.190369 
	C316.296722,319.156372 316.514160,319.345032 316.843140,319.729187 
	C316.686646,319.803070 316.449738,319.632538 316.161621,319.190369 
z"/>
<path fill="#3D1F7D" opacity="1.000000" stroke="none" 
	d="
M212.674438,140.947388 
	C212.796021,141.136047 212.631805,141.404541 212.265671,141.822540 
	C212.214478,141.683029 212.322784,141.368103 212.674438,140.947388 
z"/>
<path fill="#241D44" opacity="1.000000" stroke="none" 
	d="
M264.817200,363.919769 
	C264.886353,364.045471 264.496155,364.043213 264.301758,364.042297 
	C264.107361,364.041351 264.372711,363.725403 264.372711,363.725403 
	C264.372711,363.725403 264.748047,363.794067 264.817200,363.919769 
z"/>
<path fill="#3D1C85" opacity="1.000000" stroke="none" 
	d="
M202.039719,143.306290 
	C202.136856,143.096176 202.338120,143.085190 202.841797,143.072510 
	C202.810776,143.215683 202.477325,143.360565 202.039719,143.306290 
z"/>
<path fill="#31186A" opacity="1.000000" stroke="none" 
	d="
M176.714508,143.993500 
	C176.815323,144.166122 176.654160,144.417175 176.298111,144.804321 
	C176.074112,144.601730 176.190552,144.312225 176.714508,143.993500 
z"/>
<path fill="#23184C" opacity="1.000000" stroke="none" 
	d="
M207.732056,238.980957 
	C207.812393,239.146500 207.635071,239.407181 207.254929,239.810684 
	C207.229050,239.685623 207.369812,239.393158 207.732056,238.980957 
z"/>
<path fill="#481F99" opacity="1.000000" stroke="none" 
	d="
M356.947571,363.729919 
	C356.860443,363.949921 356.684113,363.965851 356.242249,363.983765 
	C356.270599,363.832428 356.564484,363.679138 356.947571,363.729919 
z"/>
<path fill="#31186A" opacity="1.000000" stroke="none" 
	d="
M187.254089,150.919846 
	C187.206146,150.767395 187.403427,150.520294 187.828278,150.159668 
	C187.902374,150.325500 187.716873,150.585175 187.254089,150.919846 
z"/>
<path fill="#201647" opacity="1.000000" stroke="none" 
	d="
M312.085876,320.144714 
	C312.152008,320.009308 312.323669,320.007294 312.752869,320.007812 
	C312.737427,320.099579 312.464447,320.188843 312.085876,320.144714 
z"/>
<path fill="#421D8C" opacity="1.000000" stroke="none" 
	d="
M318.035492,262.631958 
	C317.842773,262.752747 317.591705,262.590729 317.206665,262.229340 
	C317.346985,262.178497 317.648468,262.284912 318.035492,262.631958 
z"/>
<path fill="#351A76" opacity="1.000000" stroke="none" 
	d="
M357.972168,281.724609 
	C357.783478,281.794556 357.530426,281.581787 357.185211,281.108704 
	C357.321899,281.097015 357.593506,281.294830 357.972168,281.724609 
z"/>
<path fill="#271854" opacity="1.000000" stroke="none" 
	d="
M232.812347,364.097046 
	C232.832397,364.242737 232.607407,364.473999 232.162781,364.822571 
	C232.107681,364.654663 232.315735,364.402252 232.812347,364.097046 
z"/>
<path fill="#23184C" opacity="1.000000" stroke="none" 
	d="
M206.633789,240.891022 
	C206.697205,241.059097 206.503204,241.351273 206.129395,241.836945 
	C206.091843,241.691986 206.234116,241.353561 206.633789,240.891022 
z"/>
<path fill="#481F99" opacity="1.000000" stroke="none" 
	d="
M354.747498,364.166199 
	C354.990509,364.219421 354.637085,364.416321 354.637085,364.416321 
	C354.637085,364.416321 354.236084,364.383179 354.126892,364.299316 
	C354.017700,364.215454 354.504517,364.112976 354.747498,364.166199 
z"/>
<path fill="#481F99" opacity="1.000000" stroke="none" 
	d="
M328.981873,364.638489 
	C328.787659,364.760590 328.558868,364.608490 328.201782,364.284271 
	C328.420227,363.964691 328.711487,364.048767 328.981873,364.638489 
z"/>
<path fill="#1E1841" opacity="1.000000" stroke="none" 
	d="
M228.799072,301.637268 
	C227.966980,301.044983 227.435745,300.408386 226.904526,299.771790 
	C227.819641,299.637268 228.734741,299.502716 229.649857,299.368195 
	C229.466537,300.109772 229.283234,300.851379 228.799072,301.637268 
z"/>
<path fill="#000000" opacity="1.000000" stroke="none" 
	d="
M252.670013,232.521835 
	C252.670013,232.521835 252.245575,232.456909 252.245575,232.456909 
	C252.245575,232.456909 251.839523,232.596634 251.533203,232.486206 
	C250.818726,232.273499 250.410568,232.171204 250.002411,232.068909 
	C248.854813,232.868484 247.799850,234.029922 246.530746,234.354782 
	C245.488037,234.621704 244.190948,233.894913 242.982971,233.298431 
	C246.003021,227.095062 241.432770,223.932159 237.907883,220.269180 
	C241.456192,216.514755 249.016190,219.815369 250.052887,212.453857 
	C250.801880,210.551224 251.475464,208.998962 252.341766,207.002518 
	C253.105515,207.980591 253.759155,208.434433 253.827164,208.963547 
	C254.582397,214.838135 257.029938,218.732986 263.790131,218.070755 
	C264.407684,218.010269 265.463898,218.640518 265.667389,219.190262 
	C265.877289,219.757294 265.433838,221.166351 265.036316,221.267883 
	C259.207520,222.756973 261.813812,227.542511 261.056000,231.025009 
	C260.656555,232.860672 262.669800,236.871201 257.369995,235.112274 
	C256.993652,235.059387 257.007416,235.001404 256.856750,234.715439 
	C255.360748,233.793594 254.015381,233.157715 252.670013,232.521835 
z"/>
<path fill="#3D1F7D" opacity="1.000000" stroke="none" 
	d="
M250.003448,232.309982 
	C250.410568,232.171204 250.818726,232.273499 251.398834,232.653763 
	C251.319260,232.947449 251.067734,232.963165 250.439758,233.004242 
	C250.063324,233.029602 250.004471,232.551056 250.003448,232.309982 
z"/>
<path fill="#351A76" opacity="1.000000" stroke="none" 
	d="
M224.611328,187.205124 
	C225.454208,187.527542 226.024246,187.904144 226.790619,188.149658 
	C228.640167,189.171661 230.825165,189.980377 231.839844,191.547043 
	C234.213409,195.211868 235.953644,199.280319 238.085846,203.109909 
	C240.096497,206.721176 241.325958,210.321182 239.037018,214.628235 
	C234.420959,213.902985 229.843842,213.134842 230.687576,206.361465 
	C230.900772,204.650024 228.635605,202.438675 227.167725,200.754807 
	C225.078339,198.357971 221.642822,196.794235 224.256638,192.530884 
	C225.047089,191.241562 224.352737,189.041962 224.611328,187.205124 
z"/>
<path fill="#351A76" opacity="1.000000" stroke="none" 
	d="
M288.996887,265.621826 
	C286.977509,265.337341 283.262390,264.832550 283.184937,263.992340 
	C282.572784,257.352661 276.082001,255.870163 272.943665,251.553146 
	C270.633331,248.375092 267.766235,245.601715 265.071686,242.310944 
	C264.996124,241.973846 264.989807,241.494888 265.276733,241.155991 
	C266.044891,240.209076 266.526093,239.601059 267.007324,238.993057 
	C275.635956,246.653839 284.798370,253.867767 288.996887,265.621826 
z"/>
<path fill="#31186A" opacity="1.000000" stroke="none" 
	d="
M266.778259,238.865982 
	C266.526093,239.601059 266.044891,240.209076 265.276062,240.916489 
	C265.508698,240.256882 266.028961,239.497894 266.778259,238.865982 
z"/>
<path fill="#31186A" opacity="1.000000" stroke="none" 
	d="
M225.504684,180.490067 
	C225.528671,180.479355 225.480698,180.500778 225.504684,180.490067 
z"/>
<path fill="#5720B0" opacity="1.000000" stroke="none" 
	d="
M236.440521,149.861511 
	C238.165665,143.928513 233.736588,141.400101 230.293198,138.105087 
	C224.409409,132.474899 218.840775,126.515373 213.067520,120.349686 
	C221.503265,121.518631 229.047729,124.225693 234.005661,132.315430 
	C235.789261,135.225662 239.723389,137.295959 243.115570,138.642075 
	C250.031219,141.386429 250.503433,142.348755 245.229248,147.750214 
	C243.200653,148.523193 241.400513,149.043259 239.305817,149.760895 
	C238.276199,149.934555 237.541138,149.910660 236.440521,149.861511 
z"/>
<path fill="#481F99" opacity="1.000000" stroke="none" 
	d="
M238.586044,156.007843 
	C239.333618,162.324036 240.979599,167.870773 245.838303,172.537094 
	C250.731918,177.236954 255.007812,182.615433 259.230194,187.953003 
	C260.240387,189.229980 259.964203,191.524582 260.134338,193.678070 
	C255.305069,190.108353 250.775925,186.003830 245.896393,182.369797 
	C240.308136,178.207932 238.978119,171.945511 236.802032,165.992783 
	C235.675766,162.911911 234.042725,160.016312 232.384521,156.497803 
	C233.875809,156.370117 236.019287,156.186584 238.586044,156.007843 
z"/>
<path fill="#481F99" opacity="1.000000" stroke="none" 
	d="
M264.944458,199.327576 
	C266.613342,199.621124 268.598572,195.335602 269.974670,199.693604 
	C268.469604,200.880615 266.939819,201.754166 265.409973,202.627716 
	C265.235901,201.635666 265.061798,200.643616 264.944458,199.327576 
z"/>
<path fill="#481F99" opacity="1.000000" stroke="none" 
	d="
M262.000793,195.340256 
	C262.165405,195.622879 262.332001,196.240448 262.263794,196.936752 
	C262.020233,196.568726 262.011536,196.121964 262.000793,195.340256 
z"/>
<path fill="#5720B0" opacity="1.000000" stroke="none" 
	d="
M279.665344,185.847504 
	C278.778748,188.408997 277.575623,190.834442 276.740906,192.517227 
	C271.502411,187.135025 265.461334,182.072647 260.926514,175.903122 
	C257.365814,171.058853 252.211594,167.645264 250.169113,160.975403 
	C248.950470,156.995697 247.534332,153.031662 246.990524,148.413330 
	C247.462875,148.151138 248.085175,148.140854 248.399368,148.446884 
	C253.118225,153.043182 259.631287,155.491852 262.744995,162.163834 
	C264.600433,166.139633 268.931946,168.881851 271.570099,172.591293 
	C274.506653,176.720291 276.784363,181.317871 279.665344,185.847504 
z"/>
<path fill="#5720B0" opacity="1.000000" stroke="none" 
	d="
M278.666534,175.960052 
	C278.888428,175.874542 279.105713,175.926559 279.322968,175.978561 
	C279.102600,176.018234 278.882263,176.057907 278.666534,175.960052 
z"/>
<path fill="#000000" opacity="1.000000" stroke="none" 
	d="
M337.950226,292.977600 
	C337.649628,293.104156 337.404449,293.300110 337.106415,293.776947 
	C330.536346,297.920532 324.074585,301.852600 317.323517,306.015198 
	C313.680878,307.273712 310.381439,308.597687 306.954559,309.221588 
	C304.807068,309.612549 302.467957,308.950775 300.117615,308.394623 
	C306.884918,305.585388 313.749420,303.142883 320.860962,300.456268 
	C321.108002,300.212128 321.171234,300.175964 321.471802,300.128662 
	C322.535156,299.420258 323.297974,298.759125 324.060760,298.097992 
	C324.060760,298.097992 324.064178,298.043854 324.358276,298.064941 
	C325.115051,297.767883 325.577728,297.449799 326.040375,297.131714 
	C326.040375,297.131683 326.128296,297.211395 326.487946,297.166626 
	C327.561493,296.412781 328.275360,295.703644 329.235382,294.932434 
	C329.645447,294.828491 329.809387,294.786591 330.195618,294.714050 
	C330.702484,294.529205 330.870941,294.292358 331.135773,293.841553 
	C331.614746,293.493713 331.802155,293.222595 332.238281,292.890533 
	C333.388062,292.262878 334.210114,291.641510 335.262817,290.979919 
	C335.493439,290.939697 335.960999,290.913910 336.228729,290.931458 
	C336.981049,291.625183 337.465637,292.301392 337.950226,292.977600 
z"/>
<path fill="#421D8C" opacity="1.000000" stroke="none" 
	d="
M239.974579,153.963303 
	C240.282196,153.279083 240.611649,152.619385 240.941086,151.959702 
	C241.174194,152.100723 241.407318,152.241745 241.640427,152.382767 
	C241.274124,152.878113 240.907822,153.373474 240.293167,153.950531 
	C240.044815,154.032257 239.996399,153.987839 239.974579,153.963303 
z"/>
<path fill="#421D8C" opacity="1.000000" stroke="none" 
	d="
M290.867737,236.323090 
	C291.811157,235.748642 292.609589,235.502716 293.694305,235.126495 
	C298.125031,239.529510 292.985992,239.593491 290.245880,241.109497 
	C290.404816,239.623535 290.563782,238.137573 290.867737,236.323090 
z"/>
<path fill="#3D1F7D" opacity="1.000000" stroke="none" 
	d="
M252.841232,232.871506 
	C254.015381,233.157715 255.360748,233.793594 256.827271,234.717224 
	C255.636429,234.410370 254.324448,233.815765 252.841232,232.871506 
z"/>
<path fill="#3D1C85" opacity="1.000000" stroke="none" 
	d="
M331.910522,292.896820 
	C331.802155,293.222595 331.614746,293.493713 330.955139,293.940521 
	C330.336761,294.332336 330.140564,294.523621 329.973358,294.744659 
	C329.809387,294.786591 329.645447,294.828491 328.905945,294.922852 
	C327.890991,294.977051 327.451599,294.978760 327.012238,294.980469 
	C322.092926,290.193451 317.088013,285.488678 312.334930,280.541962 
	C311.499847,279.672852 311.720276,277.789612 311.717865,276.186462 
	C317.123901,278.760254 322.158905,281.752655 327.447723,284.195526 
	C330.480103,285.596130 333.924591,286.104401 337.450745,287.293671 
	C337.132294,288.686584 336.546661,289.800262 335.960999,290.913910 
	C335.960999,290.913910 335.493439,290.939697 334.866302,290.965454 
	C333.182129,291.015076 332.125122,291.038940 330.957947,291.153625 
	C330.695435,291.518799 330.736084,291.771423 331.132751,292.144897 
	C331.499542,292.491699 331.704468,292.694824 331.910522,292.896820 
z"/>
<path fill="#3D1C85" opacity="1.000000" stroke="none" 
	d="
M358.632385,293.975861 
	C358.969269,294.713989 358.943451,295.426727 358.871735,296.491028 
	C354.733582,302.194153 348.997375,298.155243 344.121277,299.423981 
	C343.292542,296.999573 342.462738,294.571960 341.317566,291.671265 
	C341.011780,290.128632 341.021301,289.059052 341.030823,287.989502 
	C341.939514,287.333557 342.848206,286.677582 343.548340,286.172211 
	C348.479370,288.777618 353.374512,291.364075 358.632385,293.975861 
z"/>
<path fill="#2D1960" opacity="1.000000" stroke="none" 
	d="
M341.017303,287.989380 
	C341.021301,289.059052 341.011780,290.128632 341.002350,291.599091 
	C340.197540,292.294373 339.392670,292.588715 338.268982,292.930359 
	C337.465637,292.301392 336.981049,291.625183 336.228729,290.931458 
	C336.546661,289.800262 337.132294,288.686584 337.880096,287.300842 
	C338.042236,287.028717 338.522675,287.003082 338.975708,287.174500 
	C339.956024,287.553741 340.483307,287.761536 341.010620,287.969360 
	C341.010620,287.969360 341.003784,287.989227 341.017303,287.989380 
z"/>
<path fill="#3D1C85" opacity="1.000000" stroke="none" 
	d="
M340.986969,287.686584 
	C340.483307,287.761536 339.956024,287.553741 339.215515,287.155579 
	C339.394135,286.606079 339.785950,286.246979 340.177734,285.887878 
	C340.439575,286.393158 340.701447,286.898468 340.986969,287.686584 
z"/>
<path fill="#000000" opacity="1.000000" stroke="none" 
	d="
M244.937637,375.124542 
	C245.292130,376.497284 245.646622,377.869995 245.937088,379.602386 
	C244.771988,381.161194 243.875748,382.723145 242.527451,383.484497 
	C239.661987,385.102509 236.198975,385.914459 233.939270,382.960663 
	C231.465256,379.726685 230.932968,375.936768 234.898438,372.548798 
	C238.061798,371.437927 240.977829,370.764893 243.644852,374.173340 
	C244.365356,374.751984 244.651489,374.938263 244.937637,375.124542 
z"/>
<path fill="#31186A" opacity="1.000000" stroke="none" 
	d="
M323.724976,298.103210 
	C323.297974,298.759125 322.535156,299.420258 321.462341,300.093506 
	C321.897980,299.439911 322.643585,298.774200 323.724976,298.103210 
z"/>
<path fill="#31186A" opacity="1.000000" stroke="none" 
	d="
M326.830933,295.212219 
	C327.451599,294.978760 327.890991,294.977051 328.659790,294.984955 
	C328.275360,295.703644 327.561493,296.412781 326.530151,297.124939 
	C326.358337,296.566620 326.503967,296.005310 326.830933,295.212219 
z"/>
<path fill="#31186A" opacity="1.000000" stroke="none" 
	d="
M325.761139,297.179810 
	C325.577728,297.449799 325.115051,297.767883 324.348267,298.086243 
	C324.523407,297.800262 325.002655,297.514069 325.761139,297.179810 
z"/>
<path fill="#271854" opacity="1.000000" stroke="none" 
	d="
M244.777084,374.923615 
	C244.651489,374.938263 244.365356,374.751984 243.922272,374.360596 
	C244.049042,374.344543 244.332794,374.533630 244.777084,374.923615 
z"/>
<path fill="#2D1960" opacity="1.000000" stroke="none" 
	d="
M332.238281,292.890533 
	C331.704468,292.694824 331.499542,292.491699 331.158813,291.910217 
	C331.021820,291.532990 331.068085,291.062805 331.068085,291.062805 
	C332.125122,291.038940 333.182129,291.015076 334.635681,291.005676 
	C334.210114,291.641510 333.388062,292.262878 332.238281,292.890533 
z"/>
<path fill="#2D1960" opacity="1.000000" stroke="none" 
	d="
M330.195618,294.714050 
	C330.140564,294.523621 330.336761,294.332336 330.742615,294.071899 
	C330.870941,294.292358 330.702484,294.529205 330.195618,294.714050 
z"/>
<path fill="#351A76" opacity="1.000000" stroke="none" 
	d="
M330.957947,291.153625 
	C331.068085,291.062805 331.021820,291.532990 330.995758,291.767670 
	C330.736084,291.771423 330.695435,291.518799 330.957947,291.153625 
z"/>
</svg>