<svg version="1.1" id="Layer_1" xmlns="http://www.w3.org/2000/svg" xmlns:xlink="http://www.w3.org/1999/xlink" x="0px" y="0px"
	 width="100%" viewBox="0 0 528 464" enable-background="new 0 0 528 464" xml:space="preserve">
<path fill="#000000" opacity="1.000000" stroke="none" 
	d="
M182.587097,9.220766 
	C195.755890,6.303980 204.482681,11.884570 207.366287,24.593889 
	C209.903030,35.774429 210.914795,47.344166 214.981018,58.124832 
	C223.594345,80.961166 240.798691,93.309067 264.365234,97.619102 
	C271.403351,98.906288 278.441345,100.241119 285.407898,101.861511 
	C295.333344,104.170135 300.450256,110.585648 300.465881,120.230164 
	C300.481598,129.931229 295.509918,136.151245 285.401520,138.510513 
	C276.004730,140.703735 266.441650,142.224609 257.110504,144.651611 
	C232.668976,151.008774 218.077896,167.086609 212.367386,191.419113 
	C210.428909,199.678925 209.010818,208.059677 207.271713,216.367752 
	C205.259521,225.980423 198.506165,231.949463 189.387848,232.303986 
	C180.332169,232.656052 172.995010,227.185745 170.632263,217.600861 
	C168.524445,209.050171 167.249237,200.296860 165.242706,191.718063 
	C158.922836,164.697830 141.825928,148.808456 114.770294,143.346619 
	C106.942047,141.766312 99.100273,140.228271 91.328239,138.400665 
	C82.083565,136.226746 76.677094,129.302734 76.677795,120.130745 
	C76.678490,111.155807 82.303841,104.004059 91.485931,101.888359 
	C98.940849,100.170624 106.486130,98.837288 114.005821,97.409782 
	C142.265656,92.045052 161.594910,73.996132 166.689697,41.732925 
	C167.699463,35.338432 169.196335,29.014254 170.638855,22.696526 
	C172.112198,16.243782 175.876892,11.649992 182.587097,9.220766 
M129.333008,108.037209 
	C117.458687,110.892029 105.584373,113.746849 93.854195,116.567017 
	C94.552223,123.612061 98.747444,125.879814 104.278656,126.557457 
	C110.914810,127.370476 117.357666,129.080933 123.790176,130.783783 
	C151.759064,138.187805 169.668335,155.879776 177.589996,183.696365 
	C180.100479,192.511810 181.625015,201.539688 183.406219,210.513885 
	C184.029358,213.653519 184.777817,217.182190 188.801788,217.299789 
	C192.790588,217.416351 193.188690,213.904190 193.818558,210.965485 
	C195.108841,204.945648 196.432938,198.931763 197.617767,192.890854 
	C204.287430,158.884796 224.015091,137.387390 258.130371,129.695007 
	C265.756409,127.975487 273.426727,126.451859 281.080017,124.854080 
	C283.714020,124.304176 285.873535,123.329185 285.903412,120.121025 
	C285.934357,116.797325 283.507507,116.007111 281.000519,115.469200 
	C274.171631,114.003975 267.330322,112.592697 260.476868,111.246941 
	C233.198822,105.890556 213.265198,91.191566 202.590240,65.146294 
	C197.831207,53.534954 196.436584,40.984718 193.757217,28.804064 
	C193.118668,25.901163 192.443649,22.912941 188.979248,22.668203 
	C185.314682,22.409328 184.424255,25.535555 183.821243,28.336157 
	C182.210297,35.818016 180.855499,43.355331 179.222321,50.832039 
	C173.139221,78.680450 157.132492,98.009560 129.333008,108.037209 
z"/>
<path fill="#000000" opacity="1.000000" stroke="none" 
	d="
M421.047424,255.064362 
	C413.595856,265.565277 413.028442,277.841278 410.384949,289.449066 
	C408.488556,297.776245 404.116699,303.051880 397.423645,304.189056 
	C388.668793,305.676453 381.418274,301.384583 378.919128,292.796692 
	C377.528809,288.019012 376.660767,283.073944 375.789490,278.163147 
	C371.242920,252.536362 358.886597,240.083908 333.230927,235.330536 
	C328.487213,234.451645 323.739075,233.548523 319.056824,232.397003 
	C311.466797,230.530396 306.714386,224.451782 306.671661,216.908737 
	C306.629547,209.466705 310.936920,203.599609 318.551727,201.590576 
	C324.653778,199.980652 330.904541,198.926727 337.100677,197.682541 
	C357.790863,193.527924 370.597626,180.770126 374.840851,160.066803 
	C376.076050,154.040100 377.162964,147.974747 378.649933,142.009903 
	C380.716034,133.722046 385.994659,129.522430 393.851654,129.453506 
	C401.985443,129.382126 407.487152,133.489960 409.647400,141.888229 
	C411.467621,148.964813 412.543457,156.232193 414.343262,163.314865 
	C418.845520,181.032349 430.037720,192.284042 447.797516,196.731766 
	C454.248566,198.347351 460.837311,199.407166 467.348328,200.790771 
	C476.406250,202.715576 481.662537,208.549805 481.849243,216.778061 
	C482.026764,224.601608 476.513367,230.948059 467.605896,232.927185 
	C461.921204,234.190216 456.182098,235.206970 450.471863,236.356552 
	C438.398956,238.787048 428.339905,244.424118 421.047424,255.064362 
M371.866425,195.371902 
	C364.465149,202.375137 355.893829,207.355255 346.019958,209.899979 
	C339.740448,211.518372 333.371918,212.790695 327.046021,214.230225 
	C325.145996,214.662598 323.068695,214.793579 321.982483,216.970825 
	C323.286469,219.102509 325.549469,219.242615 327.580231,219.703400 
	C332.123718,220.734390 336.705933,221.593872 341.252533,222.611923 
	C366.666779,228.302612 382.459686,243.737778 388.318878,269.192200 
	C389.251343,273.243225 390.082306,277.317993 391.045105,281.361542 
	C391.527802,283.388763 391.503357,286.303040 394.292084,286.263763 
	C397.169739,286.223236 396.789246,283.110596 397.314545,281.196198 
	C398.325073,277.513641 398.928375,273.721466 399.784058,269.993927 
	C404.661285,248.747833 416.492126,233.303192 437.225037,225.377029 
	C444.883301,222.449295 452.991272,221.299484 460.950745,219.553192 
	C462.949371,219.114700 465.763641,219.532196 466.636566,216.031570 
	C461.647888,213.753601 456.343872,213.223877 451.214844,212.245468 
	C428.742279,207.958603 411.816406,196.633896 403.132507,174.755936 
	C400.356628,167.762573 399.269806,160.308258 397.578918,153.018967 
	C396.907043,150.122589 396.899048,146.821472 393.797028,144.289932 
	C391.534454,148.271439 390.971375,152.218399 390.266327,156.065048 
	C387.612793,170.542343 383.139862,184.149155 371.866425,195.371902 
z"/>
<path fill="#000000" opacity="1.000000" stroke="none" 
	d="
M281.256897,360.407227 
	C265.951721,363.384125 257.905701,372.601318 255.258820,387.396759 
	C253.521088,397.110382 245.380188,402.033691 236.972961,399.125458 
	C231.352386,397.181213 228.660187,392.789337 227.596848,387.186188 
	C225.752365,377.466949 221.761307,369.173737 212.614441,364.172455 
	C208.899429,362.141174 204.910004,361.127228 200.821365,360.273285 
	C192.866455,358.611969 188.004333,353.439514 187.808197,346.589600 
	C187.607941,339.594879 191.868713,334.231689 200.200867,332.629303 
	C216.019196,329.587250 225.340195,320.593689 227.706390,304.570953 
	C227.730698,304.406311 227.755417,304.240479 227.797348,304.079773 
	C229.661789,296.935822 234.965988,292.603790 241.709763,292.715057 
	C248.304367,292.823822 253.257217,297.001770 255.081039,304.072052 
	C255.662384,306.325714 255.938446,308.666351 256.625366,310.883148 
	C259.810394,321.161377 266.307922,328.177673 276.893463,331.030365 
	C279.301575,331.679321 281.755157,332.160950 284.158325,332.826263 
	C290.931793,334.701447 294.861053,339.482117 295.105652,346.048706 
	C295.324249,351.917114 291.354462,357.221863 285.023315,359.453888 
	C283.930817,359.839020 282.779938,360.058716 281.256897,360.407227 
M256.841217,356.310516 
	C262.470581,351.349487 269.291382,348.612366 276.444885,346.154114 
	C258.246704,341.929993 247.849869,329.839172 241.770035,312.286743 
	C240.679779,314.248169 240.071518,315.044800 239.761993,315.944244 
	C235.421005,328.558868 227.318787,337.733398 215.064865,343.169983 
	C213.891144,343.690765 212.408142,344.165314 212.699905,345.919495 
	C213.008621,347.775696 214.523438,348.619385 216.026947,349.366943 
	C227.087875,354.866791 234.845016,363.363983 239.260101,374.904694 
	C239.728561,376.129181 239.990265,377.494629 242.127594,378.263916 
	C245.691727,370.421204 249.250061,362.376129 256.841217,356.310516 
z"/>
<path fill="#000000" opacity="1.000000" stroke="none" 
	d="
M367.974609,430.440796 
	C367.960205,424.842407 367.783264,419.679901 368.050446,414.540527 
	C368.330841,409.146637 370.845581,406.464386 374.987671,406.456573 
	C379.272736,406.448486 382.015717,409.497955 382.200623,414.884796 
	C382.365936,419.699646 382.305511,424.525970 382.214020,429.344757 
	C382.130859,433.724609 380.576935,437.483093 375.783966,438.089294 
	C370.783081,438.721771 368.755615,435.292114 367.974609,430.440796 
z"/>
<path fill="#000000" opacity="1.000000" stroke="none" 
	d="
M368.824463,22.111992 
	C369.007660,19.328266 368.956024,16.974562 369.432281,14.733029 
	C370.100952,11.586238 372.454865,10.028569 375.546875,9.817162 
	C378.702454,9.601407 381.389465,11.033063 382.112000,14.057391 
	C383.938751,21.704016 383.951447,29.514608 382.104858,37.148403 
	C381.322815,40.381416 378.400360,41.636677 375.026764,41.330612 
	C371.464844,41.007454 369.568512,38.664429 369.222382,35.500122 
	C368.755737,31.233997 368.927460,26.898054 368.824463,22.111992 
z"/>
<path fill="#000000" opacity="1.000000" stroke="none" 
	d="
M30.285788,309.758972 
	C31.310999,308.084167 32.398888,307.014771 33.931889,306.723877 
	C41.319645,305.321991 48.761772,305.332794 56.131313,306.629944 
	C59.442123,307.212708 61.167747,309.882355 61.112362,313.197296 
	C61.056473,316.542450 59.137161,319.007874 55.835434,319.536194 
	C48.778175,320.665436 41.585800,320.847778 34.590305,319.509796 
	C29.677073,318.570038 28.903212,314.552185 30.285788,309.758972 
z"/>
<path fill="#000000" opacity="1.000000" stroke="none" 
	d="
M380.109741,89.022842 
	C373.712952,91.751160 369.745422,89.912437 369.172394,83.620422 
	C368.634247,77.711342 368.812012,71.704796 369.114349,65.763512 
	C369.296173,62.191334 371.334686,59.435253 375.176971,58.901882 
	C378.314148,58.466389 381.346405,59.954914 381.894348,62.839008 
	C383.545563,71.530190 385.232391,80.394943 380.109741,89.022842 
z"/>
<path fill="#000000" opacity="1.000000" stroke="none" 
	d="
M394.269897,57.249191 
	C392.490723,57.090923 391.129486,57.098949 389.869080,56.746475 
	C386.624359,55.839108 384.721954,53.630138 384.737793,50.229118 
	C384.754608,46.617607 386.650421,44.191532 390.281677,43.606472 
	C396.890015,42.541756 403.540619,42.694656 410.165100,43.496185 
	C414.017456,43.962299 416.244049,46.285084 416.222900,50.169376 
	C416.200317,54.315807 413.618805,56.735039 409.701111,57.038654 
	C404.736328,57.423424 399.725037,57.207909 394.269897,57.249191 
z"/>
<path fill="#000000" opacity="1.000000" stroke="none" 
	d="
M78.703491,312.183472 
	C79.599663,307.611572 82.657013,306.138397 86.382523,305.993195 
	C91.675117,305.786957 96.990250,305.738251 102.279190,305.981842 
	C107.218796,306.209381 110.302895,309.227051 110.238609,313.155731 
	C110.173904,317.109833 107.113564,319.896851 102.058479,320.085144 
	C96.765465,320.282288 91.450333,320.283112 86.160179,320.038544 
	C81.622559,319.828796 78.662544,317.595398 78.703491,312.183472 
z"/>
<path fill="#000000" opacity="1.000000" stroke="none" 
	d="
M401.876770,404.896606 
	C397.599854,404.764038 393.774384,404.849365 390.001709,404.443787 
	C386.014587,404.015106 383.685699,401.590485 383.767090,397.445740 
	C383.845612,393.447021 386.487518,391.201965 390.057526,390.975464 
	C396.323181,390.577911 402.646881,390.569763 408.915131,390.934113 
	C412.752716,391.157227 415.378235,393.490753 415.293549,397.777039 
	C415.210541,401.978821 412.736084,404.068237 408.790741,404.552002 
	C406.662170,404.812988 404.498993,404.792236 401.876770,404.896606 
z"/>
<path fill="#000000" opacity="1.000000" stroke="none" 
	d="
M76.565353,279.853516 
	C77.064667,286.098541 77.162636,291.918945 76.544197,297.728394 
	C76.114578,301.764191 73.931023,304.221558 69.759964,304.273529 
	C65.466377,304.327087 63.213608,301.477051 62.969467,297.696014 
	C62.573589,291.564911 62.611275,285.374451 62.966953,279.238098 
	C63.175484,275.640472 65.294182,272.889435 69.329086,272.785614 
	C73.730377,272.672272 76.061447,275.102142 76.565353,279.853516 
z"/>
<path fill="#000000" opacity="1.000000" stroke="none" 
	d="
M341.068909,43.627388 
	C347.451355,42.581944 353.459778,42.819859 359.426849,43.229633 
	C364.726288,43.593555 367.426544,46.363903 367.276001,50.456100 
	C367.126678,54.516487 364.179749,57.040352 358.933716,57.200054 
	C353.775330,57.357094 348.605621,57.319668 343.445587,57.185116 
	C339.594177,57.084682 336.528107,55.459827 335.847595,51.346149 
	C335.225525,47.585594 336.863464,44.879665 341.068909,43.627388 
z"/>
<path fill="#000000" opacity="1.000000" stroke="none" 
	d="
M382.232971,379.653931 
	C381.954956,381.572662 381.876831,383.105865 381.366638,384.478485 
	C380.197205,387.624847 377.785614,389.316223 374.428925,389.065918 
	C371.273285,388.830658 369.007141,386.912689 368.552490,383.822601 
	C367.483643,376.558258 367.379608,369.224030 368.826874,361.997772 
	C369.470703,358.783051 372.138123,357.576721 375.254883,357.579590 
	C378.479279,357.582581 380.594208,359.203461 381.469299,362.319122 
	C383.031342,367.880707 381.890656,373.573578 382.232971,379.653931 
z"/>
<path fill="#000000" opacity="1.000000" stroke="none" 
	d="
M362.025940,391.436310 
	C365.724243,393.233978 366.971130,395.974121 366.127319,399.428101 
	C365.260132,402.977722 362.504639,404.306122 359.056702,404.591125 
	C353.257446,405.070465 347.453735,405.110504 341.665985,404.617218 
	C337.528992,404.264618 334.758118,402.141022 334.745636,397.676636 
	C334.732880,393.102936 337.835541,391.010498 341.793640,390.868530 
	C348.395844,390.631683 355.042938,390.134125 362.025940,391.436310 
z"/>
<path fill="#000000" opacity="1.000000" stroke="none" 
	d="
M62.708954,337.013733 
	C62.770672,333.699127 62.545033,330.828491 62.963772,328.055206 
	C63.549904,324.173279 65.872154,321.632843 70.062805,321.786743 
	C73.997993,321.931274 75.991959,324.358704 76.447403,328.165344 
	C77.181541,334.301392 77.309578,340.458221 76.627304,346.591797 
	C76.168877,350.713013 73.979805,353.453796 69.463982,353.299072 
	C64.861359,353.141388 63.215271,349.941345 62.817123,345.984924 
	C62.535027,343.181763 62.728138,340.330780 62.708954,337.013733 
z"/>
</svg>