<svg version="1.1" id="Layer_1" xmlns="http://www.w3.org/2000/svg" xmlns:xlink="http://www.w3.org/1999/xlink" x="0px" y="0px"
	 width="100%" viewBox="0 0 1024 1024" enable-background="new 0 0 1024 1024" xml:space="preserve">
<path fill="#000000" opacity="1.000000" stroke="none" 
	d="
M627.383423,594.000122 
	C627.384033,612.576782 627.384033,630.653442 627.384033,648.441711 
	C630.572388,649.499939 632.221924,648.125549 633.973633,647.311890 
	C647.567322,640.997925 661.111328,634.575806 674.743896,628.347046 
	C680.881165,625.542786 682.961792,626.921692 683.013245,633.724670 
	C683.115295,647.222656 683.025330,660.721985 683.060181,674.220703 
	C683.075745,680.254211 683.935974,680.740051 689.414978,678.116516 
	C691.968018,676.893982 694.515076,675.646667 697.131226,674.572021 
	C699.655762,673.535034 700.942810,674.455383 700.836304,677.261841 
	C699.388000,715.411194 701.354126,753.555786 701.000549,791.705688 
	C700.648438,829.687195 700.553467,867.671204 700.332214,905.653992 
	C700.243896,920.812561 687.652161,928.302002 674.613770,920.307007 
	C653.172729,907.159668 632.112244,893.390442 610.929016,879.824463 
	C599.047546,872.215454 599.090637,872.179199 586.428772,878.660828 
	C572.937378,885.567017 559.315918,892.228943 545.959595,899.386353 
	C535.077942,905.217712 524.647949,905.447998 513.617126,899.638306 
	C497.406952,891.100830 480.842529,883.238220 464.558380,874.837280 
	C460.590027,872.790161 457.509155,872.612488 453.644836,875.196716 
	C431.352264,890.105286 408.942719,904.840393 386.490326,919.507935 
	C376.039673,926.335022 365.418518,924.259216 360.249359,914.639221 
	C358.474182,911.335632 357.937561,907.728455 357.937195,904.013672 
	C357.929718,829.520264 357.915985,755.026794 357.906097,680.533386 
	C357.905090,672.983398 358.574158,672.589355 365.480988,676.020203 
	C375.752625,681.122437 375.754425,681.122437 375.737000,669.467957 
	C375.718567,657.135681 375.643463,644.803162 375.699249,632.471252 
	C375.724670,626.848511 377.932465,625.326111 382.803497,627.703369 
	C396.127014,634.205688 409.656860,640.244019 423.204315,646.257507 
	C430.292542,649.403870 431.837799,648.733154 431.526825,641.035767 
	C430.739655,621.550293 431.203522,602.059814 431.049225,582.572510 
	C431.018890,578.743591 431.039703,574.901978 431.311432,571.085815 
	C431.774414,564.583313 430.317688,563.379456 424.300537,566.060913 
	C404.069916,575.076416 383.900604,584.229431 363.678833,593.264954 
	C353.050873,598.013733 341.863281,601.724792 332.869843,609.512512 
	C318.511871,621.945374 310.525757,637.690918 310.382629,656.706360 
	C310.084045,696.367371 310.281525,736.032227 310.304871,775.695496 
	C310.309357,783.272583 311.327240,783.804932 317.942383,780.264954 
	C325.020874,776.476929 332.411285,773.054382 333.862732,763.817749 
	C333.912842,763.499023 334.591309,763.278992 335.427429,762.702148 
	C336.486847,766.921448 337.253235,770.889526 337.266785,774.950317 
	C337.327972,793.281982 337.332581,811.613892 337.315430,829.945740 
	C337.308990,836.828125 335.167938,838.075195 329.144745,834.993286 
	C314.760468,827.633240 300.404266,820.213867 285.907806,813.080444 
	C281.443817,810.883789 279.688049,808.000916 279.703949,802.953674 
	C279.854675,755.124756 279.639587,707.294678 279.813873,659.465942 
	C279.969940,616.649231 300.350098,586.769287 338.974457,569.106384 
	C356.847351,560.933105 374.896210,553.138550 392.963898,545.402527 
	C396.622559,543.836060 397.826721,541.763000 397.806702,537.861816 
	C397.681732,513.531372 397.792542,489.199677 397.834137,464.868408 
	C397.849426,455.926636 397.861084,455.924133 388.946320,453.754791 
	C372.427490,449.735077 356.959381,443.197083 343.183319,433.240784 
	C330.812378,424.299988 320.551971,413.371674 316.865326,397.935425 
	C313.202240,382.597870 319.561005,370.227448 329.626251,359.369110 
	C341.413513,346.653015 356.201263,338.348389 371.917480,331.555237 
	C405.346802,317.105743 440.377991,308.892548 476.444946,304.590698 
	C495.987213,302.259827 515.578918,300.567749 535.243774,301.085419 
	C586.368042,302.431274 636.363647,309.953583 683.883179,329.942047 
	C697.613037,335.717346 710.598694,342.935577 721.920349,352.686646 
	C734.181641,363.247009 743.206421,375.652466 742.319153,393.015411 
	C741.692566,405.277802 735.460266,414.767609 727.368896,423.221191 
	C712.238525,439.029114 692.989746,447.519318 672.332336,453.178528 
	C660.396729,456.448334 660.309448,456.195740 660.303528,468.408966 
	C660.292542,491.240448 660.428162,514.073181 660.200195,536.902344 
	C660.156067,541.318787 661.772339,543.501526 665.632629,545.142883 
	C683.717773,552.832458 701.766418,560.611633 719.744690,568.547974 
	C752.630676,583.065186 772.289246,608.020508 777.831604,643.615784 
	C779.002197,651.133789 778.850830,658.897644 778.865967,666.549011 
	C778.954468,711.378357 778.826111,756.208191 779.013306,801.036865 
	C779.038696,807.109070 777.189087,810.779053 771.533630,813.530396 
	C758.659363,819.793640 746.123230,826.751526 733.439514,833.407532 
	C731.670776,834.335693 729.889832,835.269897 728.035156,835.999390 
	C722.940002,838.003662 720.817993,836.614380 720.787598,831.078857 
	C720.712463,817.413696 720.365967,803.734436 720.831909,790.084900 
	C722.099365,752.953979 721.323730,715.813477 721.818420,678.681274 
	C721.858032,675.704163 721.154785,672.326782 724.269714,669.725952 
	C727.339233,672.774353 727.782593,676.669922 728.717529,680.221497 
	C731.572693,691.067566 732.647644,702.199280 732.871033,713.363098 
	C733.054688,722.541809 733.330994,731.680786 734.975403,740.726013 
	C736.247498,747.723022 736.052063,754.606018 734.221985,761.516663 
	C733.292969,765.024780 732.788818,768.605530 733.632507,772.373169 
	C734.872559,777.910828 738.947205,780.147156 743.573059,781.899841 
	C746.049072,782.838013 747.421631,781.616272 747.700562,779.144226 
	C747.868103,777.659424 747.857422,776.150146 747.859009,774.651733 
	C747.900818,734.822693 748.200989,694.991516 747.872864,655.165466 
	C747.659546,629.274597 733.654358,611.335449 711.471741,600.359436 
	C686.111328,587.811157 659.914673,576.951599 634.066833,565.390808 
	C629.283020,563.251221 627.684509,564.136353 627.514771,569.512512 
	C627.262573,577.501770 627.407104,585.503601 627.383423,594.000122 
M563.170593,475.300018 
	C562.292053,473.885498 561.485657,472.419464 560.520630,471.066681 
	C558.181580,467.787811 554.649597,466.072418 551.054626,464.859833 
	C548.085205,463.858215 547.020874,467.246735 545.171509,468.678589 
	C535.881348,475.871552 521.997009,476.065643 513.071899,468.931061 
	C506.904358,464.000854 506.974243,464.113251 500.056702,468.410767 
	C478.152893,482.018402 467.026306,502.724823 462.226410,527.129272 
	C456.261505,557.457520 457.386780,587.441040 469.258972,616.451538 
	C471.048828,620.825073 472.739380,625.322510 476.476685,629.586914 
	C478.409149,625.417725 477.342377,621.736511 477.705994,618.243591 
	C478.159821,613.883911 480.108704,610.658508 484.548523,609.410095 
	C488.291016,608.357727 491.541504,609.295776 493.956024,612.324646 
	C496.035889,614.933716 496.229126,618.152527 496.197906,621.355591 
	C495.960663,645.677124 506.993744,664.440796 525.009460,679.752014 
	C525.746155,680.378113 526.531433,681.112976 527.910400,680.557678 
	C530.213623,676.837280 529.072998,671.317139 533.263123,667.893738 
	C534.933960,670.871399 531.697266,673.831482 534.511536,676.843323 
	C543.845215,671.076172 549.166321,661.861450 554.582886,652.923889 
	C556.975830,648.975403 554.850891,644.366577 554.541382,639.080933 
	C547.789124,644.751221 543.393372,650.937866 539.130920,658.344238 
	C537.373962,653.688599 539.679749,651.062378 540.971558,648.462646 
	C547.640503,635.041260 551.912964,620.943909 553.298035,606.034424 
	C553.538635,603.444885 554.413025,601.730103 556.302002,600.113098 
	C561.437866,595.716614 565.181274,590.270020 568.186523,584.219299 
	C574.539734,571.428101 576.670044,557.674683 577.853760,543.667664 
	C578.032288,541.555054 577.540833,539.141602 579.898987,536.973022 
	C581.818542,542.761353 583.265198,548.055664 585.307373,553.109314 
	C591.799622,569.175781 587.970886,584.099609 580.548767,598.627502 
	C579.089844,601.483337 577.956726,604.557251 579.545471,607.173218 
	C582.053833,611.303406 581.946716,615.680847 582.291748,620.109558 
	C582.410767,621.638184 581.756348,623.573181 585.022583,624.572693 
	C586.940247,619.828064 588.906921,614.930786 591.491821,610.358093 
	C595.947876,602.475342 597.355957,593.364075 598.557861,584.509277 
	C601.312378,564.215576 600.919739,543.956421 595.611572,524.006958 
	C593.073059,514.466125 589.422913,505.358002 584.371826,496.860687 
	C583.332397,495.112061 582.302795,492.607849 579.463501,493.736481 
	C576.929260,494.743896 577.080750,497.175903 577.308838,499.327545 
	C577.606750,502.138611 578.264832,504.909973 578.612610,507.717651 
	C578.900513,510.041412 579.480896,512.461426 577.505920,515.850830 
	C574.890259,500.980804 570.945618,487.815613 563.170593,475.300018 
M542.418030,432.052612 
	C564.073364,434.945038 581.303955,445.775909 596.051331,461.948059 
	C596.645508,444.327820 596.646484,426.907745 596.643494,409.487671 
	C596.643250,408.247711 596.325562,406.945923 595.072083,406.624573 
	C587.866821,404.777374 581.054504,401.835327 574.301208,398.696594 
	C570.632080,409.525848 563.900208,413.724518 556.078796,410.521759 
	C547.977539,407.204407 547.000977,400.040161 553.152405,387.385895 
	C543.779053,380.853851 535.928467,372.563049 528.366211,363.164154 
	C521.180420,372.720673 513.080750,380.498413 503.900940,387.037476 
	C510.873993,397.793823 510.753723,405.074646 503.775665,409.505768 
	C496.251526,414.283600 489.973663,411.078186 482.956635,398.743744 
	C477.694458,400.646606 472.452393,402.746002 467.077026,404.416443 
	C463.313721,405.585846 461.858612,407.601440 461.929565,411.638519 
	C462.192902,426.623505 462.109406,441.614441 462.204956,456.602844 
	C462.213959,458.018799 461.772308,459.622070 463.670319,461.239410 
	C465.672974,459.090424 467.624878,456.865326 469.713135,454.776550 
	C481.999603,442.487122 496.889404,435.267548 513.881104,432.111145 
	C517.147339,431.504456 518.824341,431.833344 518.559692,435.962341 
	C518.278687,440.346069 519.327271,444.678711 523.731140,447.083984 
	C530.856445,450.975616 538.607910,446.111511 539.637146,437.204529 
	C539.849609,435.365845 538.891357,433.023926 542.418030,432.052612 
M389.291626,842.411316 
	C386.786987,843.867249 386.353790,846.250732 386.353058,848.861938 
	C386.350281,858.687622 386.304993,868.513367 386.327423,878.338928 
	C386.331482,880.105896 386.037811,882.081604 388.259064,883.203979 
	C390.229767,882.914917 391.784149,881.620605 393.441589,880.548828 
	C409.647247,870.069946 425.942139,859.725708 442.026581,849.063904 
	C455.688141,840.008118 467.484802,828.678467 479.047882,817.167603 
	C484.129974,812.108276 483.705170,806.161743 478.786346,801.244690 
	C474.785980,797.245728 469.915802,797.402649 464.549988,801.711914 
	C463.771271,802.337402 462.972046,802.947693 462.260345,803.644775 
	C450.611542,815.052429 438.952454,826.449829 427.358521,837.913086 
	C425.430695,839.819275 422.565948,841.408508 420.725952,840.464355 
	C416.832733,838.466553 412.070496,837.858948 409.150024,834.055847 
	C407.915283,832.447937 406.967499,830.817749 406.593933,828.747620 
	C405.636261,823.440430 407.611603,819.357605 411.340942,815.781982 
	C424.320862,803.336792 437.319427,790.909790 450.178131,778.340088 
	C454.812592,773.809814 455.192169,767.866943 451.629517,763.520020 
	C447.768982,758.809631 441.851624,757.913147 436.413269,761.615723 
	C433.549133,763.565613 431.003632,766.028198 428.493347,768.445190 
	C417.940552,778.605896 407.863586,789.307007 396.819031,798.896545 
	C387.623016,806.881042 385.257690,816.438110 385.804382,827.895020 
	C386.051880,833.081299 389.293335,837.039856 389.291626,842.411316 
M629.024292,767.472290 
	C626.169250,764.947021 623.725342,761.908569 620.064819,760.394165 
	C615.273132,758.411804 609.627258,759.705627 606.958374,763.426819 
	C603.656799,768.030090 603.643250,772.989807 607.151062,777.247192 
	C608.838074,779.294678 610.790344,781.137878 612.725525,782.964478 
	C624.591858,794.164429 636.587158,805.229919 648.331238,816.556213 
	C654.104370,822.123962 654.168823,828.379761 649.133789,833.741882 
	C643.412354,839.835083 636.568909,840.497314 630.531006,835.418335 
	C627.602417,832.954773 624.809570,830.326904 622.002014,827.723145 
	C612.601074,819.004578 603.356384,810.111572 593.783936,801.586182 
	C587.755615,796.217407 580.222595,797.899841 576.766724,804.892273 
	C574.288818,809.905884 574.865784,814.080994 579.853699,818.828552 
	C594.577637,832.842773 609.686462,846.420898 627.120544,857.112122 
	C629.039368,858.288879 631.009888,858.844421 633.262695,858.767029 
	C648.577515,858.240845 660.415405,851.700012 668.160339,838.361267 
	C675.831116,825.150330 674.038818,811.338440 663.236328,800.666992 
	C652.100708,789.666443 640.778503,778.854919 629.024292,767.472290 
M639.696960,675.270020 
	C615.567505,686.185730 591.439941,697.105713 567.307800,708.015564 
	C554.498291,713.806519 544.112122,721.858887 540.821533,736.481262 
	C540.325073,738.687378 539.126770,741.301514 541.315674,743.014954 
	C543.318542,744.582947 545.456360,742.819519 547.365234,741.972961 
	C588.174683,723.874390 628.971619,705.747620 669.751099,687.581543 
	C671.779114,686.678101 674.271484,686.238220 675.251404,683.552307 
	C670.865417,678.741638 666.375183,674.055725 662.181702,669.117737 
	C660.035156,666.590027 658.119690,666.423157 655.287476,667.912170 
	C650.427612,670.467285 645.369263,672.644775 639.696960,675.270020 
M487.291290,705.253479 
	C459.500214,692.834961 431.686829,680.465820 403.948212,667.931213 
	C400.719177,666.472046 398.500824,666.504944 396.200378,669.384277 
	C393.609192,672.627441 390.599976,675.532776 387.878723,678.676880 
	C384.300720,682.810669 384.709412,684.664001 389.570221,686.839966 
	C415.980652,698.663452 442.416290,710.430847 468.801941,722.309265 
	C483.361694,728.863831 497.836029,735.608032 512.361511,742.238953 
	C514.128296,743.045410 516.087280,744.622742 517.918823,743.101501 
	C519.665649,741.650696 518.928345,739.281799 518.379822,737.451843 
	C517.381531,734.121277 516.247559,730.777161 514.694946,727.676636 
	C509.059113,716.421509 498.928955,710.463135 487.291290,705.253479 
M427.508545,360.654572 
	C428.071899,361.729584 430.084320,361.803192 429.609406,363.587433 
	C427.230652,365.726990 423.070068,364.023315 421.457001,366.817810 
	C418.017822,372.775909 415.091522,379.036530 412.753601,385.488373 
	C413.887115,386.076630 414.333405,386.515472 414.758911,386.496124 
	C418.075195,386.345490 421.397400,386.206879 424.699341,385.879059 
	C446.925720,383.672424 467.631897,377.139557 486.403473,364.707062 
	C489.410645,362.715393 490.180420,358.933929 492.873383,357.492615 
	C502.267212,352.464935 507.800385,343.965973 513.597900,335.696167 
	C515.545959,332.917328 513.966003,330.438293 510.485016,330.402039 
	C508.007721,330.376251 505.530884,330.969910 503.043793,331.116394 
	C481.222870,332.401337 459.822113,336.421478 438.535095,341.108551 
	C431.651794,342.624146 425.637634,352.966187 427.508545,360.654572 
M552.029846,348.477142 
	C571.761719,371.716095 628.062866,393.988403 645.520203,385.300507 
	C643.731506,379.043854 640.306091,373.491791 637.575439,367.636261 
	C636.670471,365.695679 634.865173,365.435638 633.014221,365.105194 
	C615.284607,361.940247 598.419495,355.540039 581.020386,351.128571 
	C579.118225,350.646271 576.843628,350.243958 575.818542,347.341034 
	C581.785889,346.599213 587.842102,346.091095 592.204224,349.151123 
	C602.362305,356.276917 613.896484,356.712799 625.375427,358.048828 
	C629.031555,358.474335 630.194214,356.114319 630.188538,353.249817 
	C630.180176,348.997162 624.982117,342.497650 620.697266,341.533997 
	C611.287048,339.417633 601.845398,337.391144 592.345398,335.736389 
	C580.060547,333.596558 567.741577,331.692322 555.235962,331.089447 
	C549.523193,330.814026 548.171997,334.845642 546.260681,338.548187 
	C544.818787,341.341370 547.702332,342.585083 548.750671,344.445709 
	C549.475464,345.732147 550.609863,346.787781 552.029846,348.477142 
M624.289307,517.455566 
	C624.680664,520.081238 625.000000,522.720276 625.483765,525.328796 
	C625.954407,527.866638 626.794373,530.677856 629.874573,530.493408 
	C633.148376,530.297302 632.425293,527.158447 632.587402,524.985657 
	C632.760376,522.667480 632.660889,520.328125 632.661255,517.998047 
	C632.665161,491.867157 632.669128,465.736237 632.663452,439.605347 
	C632.662354,434.445892 632.846924,429.272766 632.535400,424.130798 
	C632.210938,418.775208 630.704956,413.895966 624.805603,411.930603 
	C619.795654,410.261536 618.072571,411.442413 618.071594,416.729706 
	C618.068359,434.871429 618.355774,453.017456 618.045532,471.153534 
	C617.780090,486.668457 617.842163,502.039978 624.289307,517.455566 
M426.085571,494.500000 
	C426.085571,506.571503 426.085571,518.643005 426.085571,531.022949 
	C430.187469,530.719910 432.134705,529.068726 432.545197,525.808411 
	C433.634216,517.158875 436.374695,508.989868 439.576630,500.941101 
	C440.252106,499.243164 440.610870,497.488953 440.609283,495.598877 
	C440.587769,469.968689 440.653717,444.338440 440.625885,418.708282 
	C440.623016,416.060791 441.607788,412.796051 437.506042,411.860931 
	C433.478149,410.942596 430.264984,412.031097 427.966339,415.486084 
	C426.130676,418.245209 425.944336,421.382477 425.954071,424.593994 
	C426.023529,447.562592 426.046539,470.531311 426.085571,494.500000 
M543.351257,789.830078 
	C546.141174,788.740540 548.951111,787.698792 551.713867,786.544373 
	C553.478027,785.807068 554.935791,784.671326 554.934082,782.517090 
	C554.930420,777.855896 554.979126,773.189880 554.784424,768.535156 
	C554.663147,765.637024 552.956482,764.793640 550.317383,765.965454 
	C548.796204,766.640869 547.239197,767.269836 545.807617,768.106750 
	C534.784180,774.551270 523.864624,774.894409 512.988586,767.746277 
	C511.886353,767.021790 510.600952,766.569580 509.384399,766.027283 
	C507.876801,765.355164 506.369751,764.604736 504.274597,765.406982 
	C502.537476,770.580811 503.640442,776.084473 503.505402,781.494080 
	C503.479065,782.550049 504.216766,783.367493 505.146973,783.844116 
	C516.966675,789.900391 528.799866,795.915527 543.351257,789.830078 
M517.357239,871.147827 
	C519.568542,871.870178 521.760986,872.658752 523.996704,873.295471 
	C526.066528,873.885010 527.786072,873.435059 527.889526,870.927124 
	C528.067444,866.610840 528.060791,862.286743 528.113281,857.965637 
	C528.130676,856.532288 527.078369,856.039734 525.965515,855.560120 
	C520.324646,853.129089 514.654724,850.759583 509.077301,848.189819 
	C505.454926,846.520752 503.764252,847.596558 503.447662,851.446167 
	C502.479095,863.223877 503.645386,865.225342 514.334839,869.910706 
	C515.095520,870.244141 515.870605,870.544495 517.357239,871.147827 
M661.700928,877.723877 
	C663.125305,878.577209 664.509583,879.508301 665.982300,880.267883 
	C669.180664,881.917480 671.376831,880.718506 671.686646,877.360046 
	C672.123779,872.620728 672.185608,867.816223 671.478027,862.789795 
	C668.285034,863.038025 666.192383,861.635681 664.046265,859.925842 
	C660.726379,857.280762 658.483032,858.034119 656.614929,861.934387 
	C653.412048,868.621643 654.839783,873.522156 661.700928,877.723877 
z"/>
<path fill="#000000" opacity="1.000000" stroke="none" 
	d="
M682.440674,247.459076 
	C686.921753,249.761398 691.181580,251.707535 695.186890,254.082870 
	C702.160156,258.218323 704.522217,266.369659 700.967529,273.099670 
	C697.575684,279.521393 688.951904,282.410126 682.005188,279.249878 
	C665.024414,271.524933 648.115356,263.641724 631.110291,255.971100 
	C628.239014,254.675949 626.794556,252.716431 625.806152,249.868942 
	C622.039307,239.016510 618.031921,228.247604 614.264893,217.395233 
	C613.144592,214.167694 611.242676,212.019501 608.119263,210.656296 
	C601.249512,207.658005 594.466248,204.462082 587.615173,201.420029 
	C586.160767,200.774231 584.669678,199.674347 582.880127,200.780289 
	C581.637756,202.423157 582.685425,203.925110 583.271057,205.425293 
	C592.415588,228.847336 601.835022,252.152161 612.351074,275.004608 
	C614.018127,278.627197 617.425964,282.727600 614.211548,286.606140 
	C611.019897,290.457153 606.714539,287.204254 603.060120,286.309113 
	C586.670044,282.294525 570.040100,280.232117 553.217468,279.234985 
	C519.102051,277.212799 485.356720,279.434296 452.050446,287.352753 
	C449.325897,288.000519 446.324585,289.112640 444.196930,286.287140 
	C442.104614,283.508545 443.957611,280.888947 445.136871,278.351715 
	C466.620789,232.128082 488.107422,185.905701 509.619446,139.695129 
	C511.446930,135.769394 513.337769,131.863678 515.406738,128.061615 
	C521.438171,116.977791 533.104980,112.909615 544.277222,118.588165 
	C557.638489,125.379364 570.678345,132.801071 583.890625,139.887772 
	C601.801453,149.494720 619.621338,159.284088 637.737793,168.488281 
	C644.274536,171.809326 647.869995,176.160294 649.236877,183.411194 
	C652.194580,199.100494 655.960388,214.635834 659.105957,230.292358 
	C659.983582,234.660568 662.059570,237.373672 666.041382,239.200150 
	C671.487793,241.698456 676.758728,244.579239 682.440674,247.459076 
M556.850708,222.267151 
	C553.876526,221.907913 550.871765,221.086121 547.934265,221.280853 
	C540.695190,221.760773 537.012085,218.370056 535.102417,211.634232 
	C533.975159,207.658325 532.772522,203.346542 528.566406,200.358307 
	C525.394226,204.863174 524.056030,209.861053 522.346619,214.607391 
	C520.844666,218.777679 518.289551,220.760605 513.936523,220.961914 
	C509.954651,221.146088 505.952179,221.428360 502.023132,222.064865 
	C497.701935,222.764954 496.996582,224.886322 500.072388,228.068069 
	C502.838196,230.929153 505.796204,233.709549 509.061493,235.955475 
	C512.984924,238.653961 513.762085,241.661011 512.537109,246.188858 
	C511.512695,249.975555 509.453857,253.897995 511.035980,258.497772 
	C516.353699,257.443268 520.084717,254.188965 523.626953,251.185669 
	C527.935669,247.532547 531.211487,248.036118 535.411987,251.217255 
	C538.985962,253.923874 542.266174,257.453796 547.309387,258.428009 
	C548.747437,253.265106 546.517273,248.916977 545.454651,244.535049 
	C544.535645,240.745026 545.343201,238.182785 548.403931,235.887970 
	C551.862122,233.295151 555.202698,230.520615 558.394226,227.605865 
	C560.436462,225.740707 562.005493,223.495789 556.850708,222.267151 
z"/>
<path fill="#000000" opacity="1.000000" stroke="none" 
	d="
M306.414001,471.280029 
	C313.839783,469.783600 316.981018,471.830353 318.519470,478.825867 
	C318.875885,480.446564 318.965790,482.134399 319.414337,483.724823 
	C321.077148,489.620697 323.902802,494.466553 330.570892,495.812042 
	C333.176666,496.337860 335.766052,497.001251 338.305145,497.788300 
	C342.229950,499.004791 343.748047,501.862183 343.428131,505.848877 
	C343.112061,509.787262 341.193939,512.402832 337.238708,513.239929 
	C334.965393,513.721008 332.605469,513.843811 330.371002,514.447876 
	C324.414551,516.058044 320.474274,519.699036 319.360260,525.998108 
	C318.984100,528.125061 318.724579,530.305359 318.045410,532.338928 
	C316.778931,536.131165 314.171295,538.607666 309.999908,538.674377 
	C305.944580,538.739258 302.891632,536.308289 302.482849,532.633850 
	C301.080566,520.029236 293.678833,514.499695 281.777191,513.074890 
	C278.105133,512.635193 276.279694,509.319183 276.039948,505.763641 
	C275.797516,502.167908 277.373016,499.265198 280.940674,497.881195 
	C282.322266,497.345245 283.782410,496.898010 285.245605,496.705048 
	C294.092651,495.538391 299.324188,490.735779 300.959991,481.849915 
	C301.670563,477.989777 302.183655,473.834595 306.414001,471.280029 
z"/>
<path fill="#000000" opacity="1.000000" stroke="none" 
	d="
M731.333008,494.502747 
	C736.253296,491.308624 737.610168,486.524323 738.634583,481.556458 
	C739.003296,479.768738 739.236816,477.935150 739.797852,476.208923 
	C740.815674,473.077545 743.072083,471.151611 746.352966,470.836243 
	C749.810730,470.503906 752.497559,472.049622 754.297974,475.002625 
	C755.531677,477.025970 755.961670,479.307739 756.314575,481.637299 
	C757.641357,490.394928 762.003723,494.911499 770.668457,496.646149 
	C771.647644,496.842133 772.646851,496.940338 773.623047,497.148224 
	C777.981506,498.076508 780.936951,500.472595 781.189514,505.156677 
	C781.415955,509.356659 778.431885,512.770508 773.439636,513.308472 
	C763.233765,514.408264 757.504578,519.467529 756.171509,529.934204 
	C755.401733,535.978271 751.680481,538.908813 747.045166,538.727905 
	C742.446533,538.548401 739.609924,535.445801 738.768127,529.674316 
	C737.126221,518.418579 733.942505,515.192200 722.708069,513.398926 
	C716.469604,512.403076 714.696960,510.649567 714.615051,505.393555 
	C714.533325,500.146301 716.432129,497.922119 722.336975,496.905060 
	C725.302551,496.394287 728.238220,495.910278 731.333008,494.502747 
z"/>
<path fill="#000000" opacity="1.000000" stroke="none" 
	d="
M714.926636,627.076538 
	C716.062683,624.335693 718.141418,623.933716 720.389526,623.799988 
	C728.176208,623.336792 738.289490,630.012451 740.187927,636.963379 
	C738.094482,637.934448 736.725708,636.304749 735.288635,635.435303 
	C731.552979,633.175049 728.851257,633.574280 726.782349,637.735168 
	C725.889893,639.530029 725.462585,642.481323 722.798340,642.299011 
	C720.074036,642.112549 719.536743,639.293579 718.752258,637.138977 
	C717.561707,633.869507 715.237976,631.060608 714.926636,627.076538 
z"/>
<path fill="#000000" opacity="1.000000" stroke="none" 
	d="
M501.704559,492.691101 
	C505.025574,489.822235 508.596252,488.702850 512.552185,488.701599 
	C523.850952,488.697968 535.149719,488.706299 546.448486,488.707275 
	C551.283203,488.707703 555.237244,490.669434 557.988159,494.550629 
	C560.867981,498.613678 561.427063,503.113312 559.236450,507.759338 
	C557.070007,512.354126 553.086365,514.337708 548.360352,514.393127 
	C535.904663,514.539124 523.442871,514.497803 510.988525,514.263611 
	C505.429230,514.159058 501.077332,511.428345 498.713257,506.276398 
	C496.425751,501.291382 498.071594,496.897949 501.704559,492.691101 
z"/>
</svg>