<svg version="1.1" id="Layer_1" xmlns="http://www.w3.org/2000/svg" xmlns:xlink="http://www.w3.org/1999/xlink" x="0px" y="0px"
	 width="100%" viewBox="0 0 1024 1024" enable-background="new 0 0 1024 1024" xml:space="preserve">
<path fill="#000000" opacity="1.000000" stroke="none" 
	d="
M218.198883,863.814575 
	C212.378296,857.525269 209.685059,850.396179 209.693680,842.194702 
	C209.728851,808.700562 208.684692,775.163208 210.055847,741.724487 
	C211.436890,708.044006 224.746979,678.443298 247.169006,653.191467 
	C258.759674,640.137878 272.212250,629.287048 287.658447,621.008118 
	C288.806488,620.392822 289.833710,619.552185 290.935272,618.803894 
	C290.461761,616.148865 288.150635,615.424072 286.647583,614.033875 
	C274.743835,603.023499 266.071686,590.480042 266.629242,573.326233 
	C266.996796,562.017700 276.617523,552.366028 288.792358,555.009521 
	C295.792114,556.529358 300.832855,552.528687 305.023315,547.348389 
	C310.681824,540.353271 311.096039,532.016418 310.868347,523.634033 
	C310.575073,512.838562 312.330597,513.241211 301.269440,511.841644 
	C282.271729,509.437866 263.442963,506.028992 245.501236,498.921967 
	C236.893738,495.512451 228.933395,491.065765 222.444473,484.354645 
	C213.476471,475.079468 213.021286,463.228241 221.221222,453.199524 
	C227.905182,445.024902 236.782913,439.757202 245.895859,434.801422 
	C269.139221,422.161255 294.000183,413.598511 319.143555,405.772858 
	C322.503937,404.726990 324.507812,403.040955 325.433136,399.559448 
	C333.850861,367.887909 342.008942,336.146759 349.293518,304.199371 
	C351.569366,294.218323 347.205688,285.772949 339.204468,279.693298 
	C330.670441,273.208771 321.231964,270.896057 310.553101,274.444397 
	C285.602295,282.735046 260.552795,290.728973 235.534286,298.815308 
	C229.902496,300.635620 224.272903,301.670807 218.503525,299.076324 
	C211.678986,296.007355 207.319687,290.890137 206.942001,283.471497 
	C206.583847,276.436279 209.732391,270.613129 215.670288,266.474121 
	C235.497284,252.653702 256.125427,240.075714 276.534546,227.157654 
	C305.539490,208.798798 334.717255,190.705307 365.639160,175.705643 
	C392.176971,162.832611 420.080170,154.408920 449.869232,155.996307 
	C504.357605,158.899887 545.635132,183.930161 570.044556,233.174118 
	C589.488586,272.400818 606.938293,312.617767 625.127808,352.461548 
	C626.671082,355.841919 628.316284,357.560516 632.280762,358.029175 
	C656.231323,360.860413 680.250305,363.486664 703.191467,371.617310 
	C711.208801,374.458771 719.117188,377.529114 726.083130,382.594574 
	C742.601685,394.606384 742.728333,411.386383 726.490723,423.880219 
	C712.043762,434.996216 695.674072,442.316162 678.670715,448.372925 
	C668.006409,452.171600 657.260437,455.749847 646.487183,459.228912 
	C642.812744,460.415466 641.201172,462.254852 641.234436,466.363678 
	C641.424805,489.860352 641.261047,513.359741 641.399414,536.857056 
	C641.438477,543.493713 644.185242,549.115723 649.409485,553.367065 
	C651.132874,554.769470 653.021179,555.713684 655.393250,555.127991 
	C668.954590,551.779602 678.920166,563.034912 677.646423,577.608521 
	C676.016418,596.256653 665.680054,609.222046 650.017578,618.514221 
	C648.510803,619.408203 646.479736,619.721619 645.603394,622.403809 
	C655.733704,629.804199 665.808838,637.617554 674.623718,646.811035 
	C676.661682,645.908447 676.392761,644.121094 676.433167,642.837708 
	C676.736816,633.185669 679.929504,624.237366 685.328979,616.667114 
	C693.755066,604.853577 696.139221,591.932983 695.616211,577.981079 
	C695.491455,574.653015 695.789246,571.304810 695.585510,567.984741 
	C694.766418,554.639526 704.868958,548.358459 712.743774,547.915588 
	C721.465088,547.425171 730.841675,556.392883 730.695984,566.586365 
	C730.493896,580.725586 731.614014,594.866333 730.518372,609.003723 
	C730.151733,613.734436 728.170776,617.602417 725.517151,621.293030 
	C721.799744,626.463379 718.767700,631.967651 716.862793,638.087769 
	C715.708557,641.796631 716.260010,643.801270 720.765869,643.669861 
	C731.586182,643.354309 742.412415,643.819885 753.243652,643.199829 
	C758.320618,642.909241 759.804016,640.745483 759.720459,636.003601 
	C759.577026,627.862305 759.321777,620.024841 756.410339,612.039490 
	C751.368286,598.210266 756.494751,585.935181 769.194824,578.258301 
	C772.068604,576.521240 773.387573,574.512146 773.751099,571.180847 
	C774.836914,561.230835 784.084351,552.896423 793.723633,552.805542 
	C803.268921,552.715515 813.163696,561.380615 814.153076,571.359070 
	C814.495361,574.811035 815.808899,576.810669 818.526611,578.509949 
	C828.388245,584.676270 832.170105,594.158203 832.258484,605.242493 
	C832.408691,624.069275 831.738586,642.912292 832.267639,661.724426 
	C833.360168,700.573486 807.610352,730.572754 773.549988,741.328857 
	C764.635376,744.144104 755.810181,747.415466 750.530273,756.072876 
	C747.260864,761.433594 745.254822,767.119873 745.275818,773.508240 
	C745.345886,794.836548 745.258606,816.165405 745.348694,837.493530 
	C745.381042,845.148865 744.302246,852.433960 739.858521,858.901184 
	C733.256653,868.509155 723.469360,871.584351 712.535400,871.751343 
	C697.426331,871.982056 682.311584,871.874207 667.199341,871.843628 
	C652.758484,871.814392 638.317688,871.618591 623.877075,871.642517 
	C608.583130,871.667786 593.288879,871.816467 577.995911,872.002136 
	C562.381470,872.191711 553.430115,866.332458 550.190125,853.726807 
	C549.427307,850.759033 549.724854,847.767395 549.636902,844.780884 
	C549.279419,832.641663 550.480225,820.474121 548.937866,808.355286 
	C547.699097,798.622131 543.081177,790.779419 535.692505,784.468933 
	C534.299622,783.279175 532.938782,782.033569 531.442871,780.985413 
	C516.251038,770.340820 512.541260,762.026855 520.460938,741.827637 
	C525.839111,728.110535 530.476868,714.328552 532.136292,699.670837 
	C532.621460,695.385193 532.541931,691.033752 532.681274,686.711243 
	C532.998474,676.874390 540.054077,669.316040 549.038391,669.219482 
	C557.902893,669.124207 565.011230,676.694885 565.214661,686.740173 
	C565.605103,706.017639 564.024963,725.006958 556.407471,743.047302 
	C556.044983,743.905762 555.369080,744.812317 556.120117,746.159424 
	C558.614136,746.133728 560.050293,744.128235 561.639099,742.639648 
	C574.558105,730.536438 581.251648,714.798889 585.245422,698.217529 
	C594.453491,659.987610 586.989075,624.948669 562.586121,593.811157 
	C561.390503,592.285645 560.409729,590.424927 557.701721,589.677612 
	C551.715088,606.979614 539.555237,617.232666 521.029907,617.023254 
	C502.829987,616.817505 490.477844,607.041748 485.116760,589.209717 
	C480.518555,591.080566 478.265472,594.275513 476.023041,597.260254 
	C460.659576,617.709961 451.768127,640.699280 449.228729,666.172974 
	C447.079529,687.732483 448.145416,709.000732 454.012207,729.973206 
	C461.969238,758.417847 477.626801,781.147461 502.881927,796.933472 
	C509.675751,801.179993 516.359375,805.551086 520.992188,812.381836 
	C525.135986,818.491638 527.348999,825.148804 527.339478,832.538696 
	C527.333069,837.538330 527.375916,842.538147 527.336670,847.537476 
	C527.230469,861.068359 518.970154,870.327393 505.393921,871.238586 
	C495.964539,871.871460 486.472351,871.603149 477.007721,871.667725 
	C460.729279,871.778870 444.447632,872.066406 428.172455,871.864868 
	C398.880371,871.502075 369.591980,872.406921 340.294556,871.677673 
	C322.190918,871.226929 304.058777,872.059937 285.944275,871.865845 
	C269.812225,871.693115 253.685013,871.545898 237.551437,871.612915 
	C230.338089,871.642822 223.901840,868.913391 218.198883,863.814575 
M637.383972,721.927307 
	C636.009521,730.695007 636.365662,739.530701 636.356628,748.351013 
	C636.332092,772.174988 636.318420,795.999023 636.307129,819.822998 
	C636.306274,821.655029 636.212280,823.503174 636.412781,825.316040 
	C636.998840,830.614990 640.998596,834.979858 645.754944,835.686157 
	C651.175842,836.491211 655.830078,833.705017 658.049744,828.389404 
	C659.052551,825.988037 658.755371,823.485046 658.804138,821.000977 
	C659.218994,799.859985 657.864807,778.673218 659.740601,757.580200 
	C661.617188,736.476685 679.332703,720.762634 700.538757,720.678711 
	C710.201538,720.640442 719.864685,720.693909 729.527283,720.640320 
	C732.677185,720.622864 735.803650,720.686462 738.970093,720.088318 
	C753.478027,717.348022 766.572815,711.192688 778.599060,702.987305 
	C790.049377,695.174988 796.445129,683.926514 797.740356,669.973389 
	C799.530457,650.689026 798.425659,631.357422 798.490723,612.051331 
	C798.515259,604.773743 795.800537,597.973328 790.444092,592.673035 
	C785.577881,587.857727 779.914307,586.977173 775.028198,589.981018 
	C769.217407,593.553345 767.304199,598.634155 768.937378,605.395569 
	C769.909668,609.420837 772.123291,613.077942 772.091064,617.410706 
	C772.000610,629.571533 772.143127,641.734192 772.040161,653.894836 
	C771.923523,667.678955 760.184204,679.055847 746.702209,678.564575 
	C727.235291,677.855225 707.723938,678.342957 688.231628,678.373474 
	C685.745789,678.377380 683.212524,678.452698 680.782471,678.918518 
	C657.115967,683.455383 642.961853,697.823364 637.383972,721.927307 
M439.828308,537.003296 
	C443.253235,526.407166 440.151031,515.358154 431.796021,508.394867 
	C428.284546,505.468323 427.380920,501.308533 429.776733,497.176941 
	C433.542908,501.754608 436.971527,506.524933 442.148529,509.349091 
	C445.315430,511.076752 446.389557,513.675110 446.327423,517.180481 
	C446.188843,525.003601 446.978394,532.912415 446.081329,540.634338 
	C445.067291,549.363037 448.868713,553.742126 456.375366,556.731201 
	C459.506409,557.977966 461.262939,558.028381 463.587921,555.346863 
	C471.438110,546.292969 480.863098,539.305115 492.078430,534.828613 
	C498.953369,532.084595 506.067749,530.693298 513.440125,530.304565 
	C516.143127,530.162048 518.699707,529.718018 518.684448,525.832092 
	C518.588257,501.355743 518.625305,476.878876 518.614807,452.402161 
	C518.613159,448.455505 516.883728,446.754425 512.712646,447.091187 
	C505.074066,447.707947 497.514313,448.797852 489.971710,450.075623 
	C483.282288,451.208893 483.195190,451.424011 487.102844,456.687103 
	C490.373657,461.092346 492.631805,465.927399 491.680206,471.513397 
	C490.362335,479.249542 485.902924,484.392334 478.169739,486.537231 
	C470.918488,488.548523 464.983124,486.223175 460.190857,480.885193 
	C454.931702,475.027191 453.824677,468.302582 456.931885,460.942535 
	C457.661987,459.213196 459.401276,457.645477 457.905701,454.742828 
	C451.785278,455.775787 445.489136,457.031860 439.136780,457.852448 
	C433.530762,458.576630 428.731323,459.847046 428.006683,466.658234 
	C427.896820,467.690521 427.272247,468.902832 425.910217,469.201813 
	C418.923828,465.683990 413.108734,467.864532 412.596344,474.608398 
	C412.253510,479.120636 411.617279,483.582916 410.592621,487.905823 
	C408.711945,495.840057 410.433624,503.113770 413.614410,510.196686 
	C418.236542,520.489136 426.938446,527.822754 433.384796,536.804688 
	C434.819763,538.804016 437.038269,539.842163 439.828308,537.003296 
M451.479187,419.960968 
	C454.175262,422.939453 457.577026,422.120575 460.823456,421.545288 
	C492.110352,416.001099 523.540527,411.968964 555.331787,410.464172 
	C595.336243,408.570618 635.147827,409.805817 674.812622,415.369476 
	C680.234375,416.129944 685.598755,413.111908 686.659424,408.564667 
	C687.971069,402.941132 684.974243,397.990875 678.953430,396.551025 
	C675.255981,395.666809 671.403625,395.434875 667.623535,394.890808 
	C645.201599,391.663483 622.648071,389.728912 600.016602,389.499176 
	C564.042908,389.134003 528.171814,391.072266 492.553131,396.434387 
	C480.557556,398.240204 468.566406,400.145752 456.661560,402.459961 
	C447.998352,404.144043 445.253326,412.912048 451.479187,419.960968 
M565.653381,442.377563 
	C564.487488,442.388214 563.321106,442.379272 562.155823,442.412628 
	C553.484924,442.660919 553.214294,442.933807 553.219116,451.544403 
	C553.233704,477.527069 553.324402,503.510132 553.193237,529.492065 
	C553.174072,533.287659 554.087708,535.747009 557.738647,537.321655 
	C561.880737,539.108154 565.273804,542.158508 568.910278,544.804199 
	C572.973999,547.760864 575.562012,552.171936 579.684814,555.460083 
	C585.172852,550.559875 588.393555,544.343872 591.915039,538.371765 
	C598.888367,526.545776 604.927673,514.251221 606.587158,500.460236 
	C608.681702,483.053680 607.360229,465.523010 607.642883,448.048126 
	C607.711243,443.826904 605.895508,442.141022 601.593933,442.219849 
	C589.938477,442.433441 578.277466,442.343597 565.653381,442.377563 
M447.643127,351.323181 
	C444.049805,351.996887 440.441345,352.599426 436.865967,353.357697 
	C426.461914,355.564270 415.980743,357.504303 405.847626,360.782776 
	C400.405396,362.543549 397.412750,369.102631 399.057556,374.579865 
	C400.608398,379.744141 404.457916,381.549805 411.035248,380.048187 
	C429.981476,375.722717 448.883362,371.208893 468.080170,368.055511 
	C494.651367,363.690735 521.234192,359.637054 548.211609,358.522339 
	C558.192566,358.109955 568.169739,357.978638 578.146912,357.662659 
	C582.899536,357.512177 585.947876,354.772766 587.305481,350.460114 
	C588.556641,346.485382 586.549561,343.322510 583.618896,340.793335 
	C581.237610,338.738190 578.341736,338.204041 575.227600,338.248199 
	C561.252869,338.446320 547.287415,338.180756 533.306274,339.102509 
	C504.708862,340.987915 476.513794,345.440552 447.643127,351.323181 
M373.605896,516.422424 
	C373.611206,512.095520 373.625000,507.768677 373.620026,503.441803 
	C373.610809,495.454041 373.676880,487.464752 373.533722,479.479279 
	C373.473999,476.148438 372.671448,473.503967 368.111115,474.958771 
	C362.577362,476.724213 356.925110,478.141693 351.277893,479.520264 
	C346.929565,480.581787 345.127533,482.815399 345.226135,487.591949 
	C345.531769,502.396729 345.687012,517.223450 345.227325,532.020752 
	C344.521820,554.730408 334.539551,572.097046 314.210419,583.044373 
	C312.359192,584.041260 310.087463,584.462585 308.693970,586.800293 
	C309.932831,589.221680 312.227661,590.538696 314.608002,591.633118 
	C325.213715,596.509277 335.616699,596.118896 345.537720,589.861877 
	C357.359009,582.406433 364.199738,571.193726 368.706329,558.312439 
	C373.352264,545.032776 372.873169,531.143494 373.605896,516.422424 
M399.184937,640.491699 
	C398.964386,661.568481 403.787109,681.361450 413.710480,700.539001 
	C415.729950,698.437866 415.265350,696.859375 415.148224,695.210876 
	C414.701019,688.916504 413.959106,682.595337 414.159363,676.310730 
	C415.094452,646.962036 421.821899,619.123047 436.534241,593.459106 
	C439.753204,587.843994 439.584625,587.072937 434.156525,584.142700 
	C422.583282,577.895020 412.683960,569.650513 404.192810,559.646973 
	C403.276062,558.566956 402.574829,557.023926 399.422546,557.245239 
	C399.344421,584.603760 399.266052,612.049011 399.184937,640.491699 
M711.954102,773.550781 
	C711.869263,770.724609 711.950317,767.881348 711.662109,765.076050 
	C711.183105,760.412292 707.811584,756.985229 703.397644,756.350281 
	C699.059326,755.726135 694.811890,758.148499 693.011047,762.447021 
	C691.911316,765.072021 691.403687,767.878967 691.393494,770.723694 
	C691.329651,788.526550 691.247192,806.329834 691.303833,824.132507 
	C691.325562,830.959778 696.221802,835.877686 702.408020,835.694092 
	C707.748047,835.535583 712.399658,830.117126 712.361694,823.936584 
	C712.260559,807.469666 712.103149,791.002991 711.954102,773.550781 
M518.398132,306.412415 
	C523.418213,305.210388 524.558655,301.488007 524.704895,296.967590 
	C525.015259,287.378571 527.312073,285.120422 536.961182,284.642853 
	C542.689941,284.359344 546.173279,281.859985 545.767212,277.938568 
	C545.208008,272.537354 541.036743,272.259827 536.864563,272.209351 
	C536.365601,272.203308 535.865601,272.214905 535.367859,272.187042 
	C529.324036,271.848572 525.536438,268.374756 524.685181,262.367523 
	C524.452209,260.723785 524.303894,259.068115 524.078491,257.423157 
	C523.585449,253.823425 522.020386,250.598465 518.090820,250.649582 
	C514.067749,250.701935 512.881042,254.159439 512.390930,257.685913 
	C510.816956,269.011963 508.390533,271.377380 497.237122,272.074707 
	C493.136322,272.331085 489.966217,273.699707 489.458557,278.143707 
	C489.073547,281.513947 492.746185,284.742065 497.497009,284.550812 
	C508.953949,284.089569 511.469208,289.509521 512.179138,298.999939 
	C512.471130,302.903564 514.151489,305.177338 518.398132,306.412415 
M290.719482,735.823608 
	C291.247528,739.758179 291.880829,743.895996 297.115753,743.647461 
	C302.056641,743.412903 302.812042,739.289246 303.517883,735.434448 
	C303.636475,734.786621 303.561340,734.105652 303.610870,733.442566 
	C304.032867,727.793640 307.389832,724.364502 313.102509,723.843079 
	C315.417664,723.631714 317.793427,723.824646 320.059357,723.397461 
	C323.083069,722.827393 325.426941,720.894287 325.471283,717.725220 
	C325.516449,714.499207 323.141602,712.712402 320.086243,712.129639 
	C317.968964,711.725891 315.797974,711.599548 313.649200,711.366089 
	C306.829651,710.624939 303.917633,707.571655 303.670776,700.747314 
	C303.603790,698.896423 303.442108,697.112854 302.631378,695.415649 
	C301.384705,692.806030 299.619049,691.056091 296.458923,691.348694 
	C293.320984,691.639404 291.773529,693.537354 291.200592,696.447937 
	C290.912140,697.913330 290.554382,699.373413 290.391785,700.853821 
	C289.638977,707.706848 286.373627,710.854553 279.441589,711.272400 
	C276.800049,711.431641 274.115601,711.124573 271.601044,712.341492 
	C269.548523,713.334778 267.758911,714.652710 267.583740,717.030029 
	C267.389069,719.671936 269.256226,721.227661 271.331940,722.450562 
	C273.586731,723.778931 276.119843,723.602295 278.608948,723.753052 
	C286.264526,724.216797 289.688568,727.477234 290.719482,735.823608 
M418.510895,215.281296 
	C414.316406,215.892883 412.734283,218.733063 412.338928,222.556168 
	C411.239197,233.190582 409.443604,235.056793 398.482635,236.191528 
	C394.393555,236.614868 390.818817,238.160400 390.817444,242.430191 
	C390.816101,246.637146 394.601288,247.686005 398.367096,248.017090 
	C409.237213,248.972794 410.970337,250.637772 412.231079,261.545197 
	C412.516052,264.010803 413.119659,266.049866 415.297974,267.449921 
	C420.065125,270.513855 424.438477,267.509613 425.522003,260.398071 
	C427.154572,249.683334 427.930115,248.842087 438.514099,247.972549 
	C442.385406,247.654495 445.505646,246.479248 446.230682,242.365356 
	C446.763733,239.340530 442.992279,236.640610 438.394348,236.339096 
	C427.971191,235.655594 425.696686,233.428818 424.729980,222.681122 
	C424.401825,219.032608 423.087555,216.278793 418.510895,215.281296 
M513.501099,581.653931 
	C525.674988,581.280762 537.921021,582.436157 550.168518,580.099182 
	C541.646240,570.942322 531.290649,566.643921 519.092102,567.318848 
	C508.663483,567.895813 499.707001,571.888062 491.704529,580.516113 
	C499.330811,582.407532 505.970276,581.331482 513.501099,581.653931 
M606.797546,591.817566 
	C618.523376,597.451355 630.784851,594.791077 635.201538,585.237915 
	C625.773987,581.440369 618.666809,574.555542 612.155212,566.461853 
	C608.419861,571.386597 605.370972,575.968262 601.734924,580.023499 
	C598.786865,583.311584 599.127563,585.818726 602.185120,588.443848 
	C603.443237,589.523987 604.814453,590.472351 606.797546,591.817566 
M358.331421,657.851990 
	C359.181824,654.677002 357.911041,651.938293 356.362640,649.369629 
	C353.585571,644.762695 347.927429,642.415405 343.088745,643.660889 
	C337.517151,645.095032 333.482483,649.999939 333.356293,655.492432 
	C333.245819,660.300781 337.034302,665.364563 342.035187,667.093018 
	C348.908417,669.468506 354.768127,666.344849 358.331421,657.851990 
M385.942535,784.487854 
	C391.372528,778.677856 391.997467,773.782288 388.054749,767.941833 
	C385.051239,763.492737 379.187866,761.401367 374.536774,763.070190 
	C369.612488,764.836975 367.161591,768.559875 366.390656,773.499023 
	C365.624023,778.410522 367.355164,782.378967 371.541046,785.081055 
	C376.131134,788.043945 380.805573,788.663208 385.942535,784.487854 
M334.763428,816.213806 
	C338.626984,810.280273 338.656128,805.338440 334.855133,800.673767 
	C331.550751,796.618530 326.203827,795.176575 321.384125,797.140625 
	C316.470154,799.143066 313.678894,802.825073 313.350128,808.137878 
	C313.026520,813.367432 315.632263,817.119507 320.100830,819.412842 
	C325.376862,822.120544 330.074768,820.494385 334.763428,816.213806 
z"/>
<path fill="#000000" opacity="1.000000" stroke="none" 
	d="
M744.778015,543.197327 
	C741.334106,539.359558 740.404541,535.172546 740.503113,530.457275 
	C740.624023,524.672241 741.465271,518.819885 739.627380,513.109375 
	C736.355347,502.943024 728.683594,497.316406 717.985413,497.330658 
	C714.656738,497.335083 711.322083,497.536163 708.000793,497.395935 
	C701.815674,497.134796 695.988647,492.178253 694.763794,486.348755 
	C693.247986,479.134338 696.321289,472.735870 702.731201,469.764404 
	C706.464905,468.033569 710.410583,467.920929 714.447021,467.991058 
	C731.107056,468.280609 740.672791,458.694458 740.651855,441.883057 
	C740.646484,437.554626 740.592041,433.224915 740.676880,428.898071 
	C740.838928,420.637665 747.117004,414.022766 754.943726,413.765015 
	C762.815186,413.505768 769.834961,420.142120 770.256592,428.498566 
	C770.491211,433.148987 770.339111,437.819275 770.348755,442.480621 
	C770.383667,459.399780 780.787170,469.338531 797.838989,468.581512 
	C802.215820,468.387207 806.434570,468.197174 810.262268,470.971771 
	C815.510132,474.775818 818.316467,480.874878 816.917358,486.017975 
	C815.262268,492.102570 809.644043,496.814911 803.084473,497.233978 
	C798.939514,497.498749 794.763611,497.234406 790.604370,497.330048 
	C780.620789,497.559662 770.538757,507.714081 770.330627,517.760681 
	C770.237549,522.253784 770.314880,526.750305 770.307983,531.245300 
	C770.297668,537.979004 767.557922,543.196655 761.487671,546.300171 
	C755.381470,549.422058 749.903198,547.958862 744.778015,543.197327 
M767.876343,477.638336 
	C762.513428,473.824280 759.274902,468.186035 755.210571,461.928162 
	C750.933594,471.166840 744.301392,477.206055 735.460449,482.500214 
	C745.316223,486.995178 750.962769,493.752167 755.332031,503.279449 
	C759.310608,493.375122 765.931946,487.502930 774.212891,482.361633 
	C771.837952,480.597260 770.140564,479.336273 767.876343,477.638336 
z"/>
<path fill="#000000" opacity="1.000000" stroke="none" 
	d="
M751.437927,359.561523 
	C753.362793,357.053619 755.559875,355.876434 758.316772,355.256714 
	C771.232666,352.353577 774.088501,349.157532 775.582886,335.862976 
	C775.960205,332.506592 777.097656,329.744995 779.759155,327.706757 
	C783.334167,324.968842 787.176453,324.205688 791.448059,326.150330 
	C795.889343,328.172211 797.866089,331.775238 798.268738,336.387238 
	C799.337341,348.629120 802.704102,352.542786 814.681519,355.278625 
	C820.464478,356.599518 823.970703,360.304291 824.123596,365.255371 
	C824.278809,370.278931 820.547363,374.861969 815.188171,376.484375 
	C812.023499,377.442383 808.521484,377.445679 805.723511,379.437958 
	C801.123779,382.713165 798.622559,387.127380 798.294678,392.895691 
	C797.963013,398.730286 794.636414,402.695892 789.384949,404.213867 
	C782.569031,406.184021 776.807983,402.304108 775.716919,395.008789 
	C773.821350,382.334595 771.571960,379.901550 759.304321,377.256409 
	C750.615906,375.382996 747.117493,367.868805 751.437927,359.561523 
z"/>
<path fill="#000000" opacity="1.000000" stroke="none" 
	d="
M729.069824,307.957458 
	C724.102844,311.520416 722.311951,316.397949 721.322021,321.793762 
	C720.198547,327.917419 715.615479,332.208405 710.405518,332.280426 
	C705.631165,332.346405 701.438538,328.542084 700.498901,322.246887 
	C698.979004,312.063873 693.987610,306.077698 683.274231,304.818420 
	C676.114319,303.976837 672.845581,299.870941 672.689453,293.670563 
	C672.544678,287.921844 675.616272,283.709045 682.543518,282.423859 
	C693.173828,280.451721 698.968750,274.627594 700.208496,263.906158 
	C700.799011,258.799133 703.811218,255.468826 708.908936,254.149811 
	C713.097473,253.066040 716.342346,254.684906 719.295715,257.474915 
	C721.580872,259.633667 721.744446,262.597626 722.059937,265.301788 
	C723.021973,273.545715 727.548584,278.574554 735.210266,281.152496 
	C737.574097,281.947815 739.966309,282.714996 742.223267,283.759247 
	C746.293823,285.642517 747.945007,289.377960 748.160645,293.461182 
	C748.382874,297.669525 746.652954,301.170380 742.490173,303.158508 
	C738.268860,305.174561 733.322876,305.035461 729.069824,307.957458 
z"/>
<path fill="#000000" opacity="1.000000" stroke="none" 
	d="
M471.579529,699.874756 
	C469.795380,692.829346 470.561615,686.290466 472.435974,679.836365 
	C476.270477,666.632996 482.826904,654.656433 489.713898,642.904602 
	C494.504303,634.730225 504.022278,632.192200 511.759979,636.268494 
	C519.333313,640.258301 522.495056,649.705444 518.632202,658.241638 
	C515.484436,665.197510 511.904694,671.973083 508.224213,678.667847 
	C505.030304,684.477600 503.821930,690.712708 502.770813,697.153931 
	C501.105377,707.359619 496.499725,712.403442 489.083496,713.243286 
	C481.794739,714.068787 475.685242,709.511841 471.579529,699.874756 
z"/>
<path fill="#000000" opacity="1.000000" stroke="none" 
	d="
M565.386230,457.463104 
	C571.844177,450.736938 579.247314,448.954803 586.334839,452.189880 
	C593.410583,455.419586 598.101013,463.647949 597.236450,471.314056 
	C596.429810,478.466217 590.123474,485.067566 582.314819,486.933807 
	C576.023254,488.437469 568.618042,485.284332 564.588806,479.386200 
	C559.580444,472.054749 559.752380,465.467133 565.386230,457.463104 
z"/>
</svg>